<?xml version="1.0" encoding="utf-8" standalone="no"?>
<!DOCTYPE svg PUBLIC "-//W3C//DTD SVG 1.1//EN"
  "http://www.w3.org/Graphics/SVG/1.1/DTD/svg11.dtd">
<svg xmlns:xlink="http://www.w3.org/1999/xlink" width="576pt" height="478.574102pt" viewBox="0 0 576 478.574102" xmlns="http://www.w3.org/2000/svg" version="1.1">
 <metadata>
  <rdf:RDF xmlns:dc="http://purl.org/dc/elements/1.1/" xmlns:cc="http://creativecommons.org/ns#" xmlns:rdf="http://www.w3.org/1999/02/22-rdf-syntax-ns#">
   <cc:Work>
    <dc:type rdf:resource="http://purl.org/dc/dcmitype/StillImage"/>
    <dc:date>2026-02-16T09:38:01.502594</dc:date>
    <dc:format>image/svg+xml</dc:format>
    <dc:creator>
     <cc:Agent>
      <dc:title>Matplotlib v3.5.1, https://matplotlib.org/</dc:title>
     </cc:Agent>
    </dc:creator>
   </cc:Work>
  </rdf:RDF>
 </metadata>
 <defs>
  <style type="text/css">*{stroke-linejoin: round; stroke-linecap: butt}</style>
 </defs>
 <g id="figure_1">
  <g id="patch_1">
   <path d="M 0 478.574102 
L 576 478.574102 
L 576 0 
L 0 0 
L 0 478.574102 
z
" style="fill: none"/>
  </g>
  <g id="axes_1">
   <g id="PatchCollection_1">
    <path d="M 390.210436 5.983926 
L 391.945858 3.90308 
L 398.656205 3.691324 
L 419.463993 10.356642 
L 407.963401 12.752503 
L 405.423998 17.233046 
L 401.414563 18.382117 
L 399.238213 23.426692 
L 393.730957 23.663898 
L 383.902582 19.950559 
L 388.047568 17.787337 
L 381.197101 16.026074 
L 372.293129 10.885179 
L 368.73856 6.117384 
L 381.197878 3.937297 
L 383.701176 6.068677 
L 390.210436 5.983926 
" clip-path="url(#p2629dfb520)" style="fill: #1d49c9; stroke: #ffffff; stroke-width: 0.3"/>
    <path d="M 463.141858 67.575838 
L 455.365788 70.018404 
L 451.674844 70.579412 
L 453.610957 66.307068 
L 447.746174 63.885685 
L 440.650244 65.94902 
L 438.409001 70.412973 
L 434.051213 73.107454 
L 429.144568 71.635935 
L 423.176816 71.93735 
L 418.098004 68.718383 
L 415.358917 70.326922 
L 412.523946 70.577209 
L 411.853462 74.583063 
L 403.240146 73.607714 
L 402.030489 76.997996 
L 397.641763 76.977388 
L 390.053184 88.05877 
L 382.957017 96.624223 
L 384.621536 98.704077 
L 383.031174 101.116965 
L 378.497676 101.012823 
L 375.529978 106.723177 
L 375.811019 114.80835 
L 378.73172 117.893914 
L 377.220003 125.051719 
L 373.417211 129.225584 
L 371.402218 132.734009 
L 368.33651 128.997793 
L 359.312496 136.039184 
L 353.219339 137.46634 
L 346.899223 134.365674 
L 345.264934 127.820137 
L 343.820053 113.769446 
L 348.028346 109.851689 
L 360.095868 104.74023 
L 369.118701 98.456779 
L 388.466129 78.215137 
L 408.679352 65.996844 
L 418.708028 63.331781 
L 426.22741 63.655062 
L 433.186834 58.611248 
L 441.520526 58.880571 
L 449.726214 57.667677 
L 464.021045 62.122505 
L 458.134772 63.751338 
L 463.141858 67.575838 
" clip-path="url(#p2629dfb520)" style="fill: #1d49c9; stroke: #ffffff; stroke-width: 0.3"/>
    <path d="M 446.261853 3.657559 
L 439.484987 6.93662 
L 426.230716 7.653974 
L 412.752085 6.638352 
L 411.938955 4.960752 
L 405.380781 4.854093 
L 400.379905 2.059403 
L 414.492413 0.359149 
L 421.128051 1.823274 
L 425.749876 0 
L 437.304911 1.520915 
L 446.261853 3.657559 
" clip-path="url(#p2629dfb520)" style="fill: #1d49c9; stroke: #ffffff; stroke-width: 0.3"/>
    <path d="M 433.998386 17.067684 
L 423.789591 19.557368 
L 415.726435 18.144181 
L 418.880294 16.573364 
L 416.118965 14.62756 
L 425.589955 13.407985 
L 427.404669 15.693584 
L 433.998386 17.067684 
" clip-path="url(#p2629dfb520)" style="fill: #1d49c9; stroke: #ffffff; stroke-width: 0.3"/>
    <path d="M 84.921793 465.771072 
L 82.218368 471.342832 
L 80.814934 475.826292 
L 79.063506 478.138971 
L 76.875283 478.574102 
L 76.252033 476.860162 
L 75.229776 476.605628 
L 73.815124 478.256485 
L 71.819379 477.000487 
L 72.984991 474.440038 
L 74.18591 469.03566 
L 72.391616 465.427812 
L 72.03016 461.262441 
L 74.409325 456.027648 
L 79.326362 458.138492 
L 84.165226 463.277639 
L 84.921793 465.771072 
" clip-path="url(#p2629dfb520)" style="fill: #3072f0; stroke: #ffffff; stroke-width: 0.3"/>
    <path d="M 349.277916 189.918731 
L 351.43461 191.512955 
L 358.020416 192.634292 
L 355.70974 196.803437 
L 355.129709 201.141067 
L 353.874944 202.181072 
L 351.792642 201.620718 
L 351.93954 203.167748 
L 348.597277 206.589021 
L 348.529733 209.345798 
L 350.711934 208.391844 
L 352.281748 211.061784 
L 352.093285 212.782174 
L 353.438267 215.068266 
L 351.85381 216.922688 
L 353.031112 221.633625 
L 355.508288 222.406038 
L 354.98541 225.048763 
L 350.845133 228.488441 
L 341.831511 226.839944 
L 335.174854 228.815341 
L 334.651977 232.48171 
L 329.354236 233.270956 
L 324.211894 230.516853 
L 322.550446 231.833103 
L 314.137638 229.0661 
L 312.316067 226.69899 
L 314.679409 223.047094 
L 315.549692 210.917054 
L 310.833635 204.527573 
L 307.462915 201.447043 
L 300.478456 199.105261 
L 300.017808 194.665535 
L 305.943168 193.341105 
L 313.61783 194.907484 
L 312.16917 188.015856 
L 316.483504 190.627589 
L 327.123857 185.879841 
L 328.495998 180.890773 
L 332.492921 179.661518 
L 333.154902 181.802567 
L 335.279241 181.902934 
L 340.593277 187.217328 
L 342.938671 186.743183 
L 347.959149 190.047414 
L 349.277916 189.918731 
" clip-path="url(#p2629dfb520)" style="fill: #3072f0; stroke: #ffffff; stroke-width: 0.3"/>
    <path d="M 360.97607 231.537352 
L 363.919207 229.212402 
L 364.696202 234.433195 
L 363.186847 239.136423 
L 361.111867 237.896785 
L 360.05383 233.799847 
L 360.97607 231.537352 
" clip-path="url(#p2629dfb520)" style="fill: #3072f0; stroke: #ffffff; stroke-width: 0.3"/>
    <path d="M 371.402218 132.734009 
L 373.417211 129.225584 
L 377.220003 125.051719 
L 378.73172 117.893914 
L 375.811019 114.80835 
L 375.529978 106.723177 
L 378.497676 101.012823 
L 383.031174 101.116965 
L 384.621536 98.704077 
L 382.957017 96.624223 
L 390.053184 88.05877 
L 397.641763 76.977388 
L 402.030489 76.997996 
L 403.240146 73.607714 
L 411.853462 74.583063 
L 412.523946 70.577209 
L 415.358917 70.326922 
L 428.584375 77.451848 
L 428.705057 86.827785 
L 430.247476 89.19694 
L 422.385886 90.921105 
L 417.954413 95.169223 
L 418.667879 98.897888 
L 402.572497 109.030193 
L 399.244405 117.604141 
L 402.497395 121.893947 
L 406.868173 125.271015 
L 402.670507 132.139676 
L 397.917372 133.564 
L 396.173973 143.784715 
L 393.578477 149.488463 
L 388.034412 148.900422 
L 385.447891 153.729187 
L 380.156527 154.009521 
L 378.704088 148.25386 
L 374.878152 141.345084 
L 371.402218 132.734009 
" clip-path="url(#p2629dfb520)" style="fill: #5298f8; stroke: #ffffff; stroke-width: 0.3"/>
    <path d="M 449.777227 149.093761 
L 454.588696 150.620654 
L 455.237924 152.132131 
L 457.635983 151.405339 
L 462.103826 152.85735 
L 462.551366 155.715438 
L 461.571974 157.357957 
L 464.437175 161.344147 
L 466.297005 162.454786 
L 466.022104 163.554414 
L 469.103872 164.625882 
L 470.420278 166.249209 
L 468.641926 167.580718 
L 464.954368 167.369426 
L 464.074892 167.938293 
L 465.148043 169.959311 
L 466.272181 173.858193 
L 462.348969 174.219385 
L 460.94093 175.556085 
L 460.6469 178.620412 
L 458.829108 178.032056 
L 454.704891 178.323717 
L 453.507042 176.900179 
L 451.79222 177.961579 
L 450.073855 177.08172 
L 446.474641 176.959487 
L 441.373865 175.498351 
L 436.757236 175.021216 
L 433.216828 175.156349 
L 430.712257 176.80642 
L 428.527695 177.043807 
L 428.440548 174.33328 
L 427.03062 171.512319 
L 429.77136 170.269535 
L 429.797575 167.842489 
L 428.52982 165.526507 
L 428.331438 162.833127 
L 432.748741 162.874501 
L 437.710413 160.580857 
L 438.771048 157.143695 
L 442.517867 155.194098 
L 442.088512 152.466896 
L 449.777227 149.093761 
" clip-path="url(#p2629dfb520)" style="fill: #78b4fb; stroke: #ffffff; stroke-width: 0.3"/>
    <path d="M 466.272181 173.858193 
L 467.978891 174.104334 
L 469.133393 172.719549 
L 470.521358 173.025369 
L 475.260323 172.43717 
L 478.180787 175.8844 
L 477.039383 177.117116 
L 477.417962 179.007091 
L 481.062048 179.301898 
L 482.687772 181.942041 
L 482.588171 183.139897 
L 488.392494 185.280631 
L 491.89913 184.316451 
L 494.719695 187.167617 
L 497.390293 187.101859 
L 504.126926 189.08311 
L 504.180621 190.870797 
L 502.324506 194.058764 
L 503.334371 197.41599 
L 502.615293 199.446319 
L 498.192727 199.892705 
L 495.83701 201.592716 
L 495.692711 204.297265 
L 492.043901 204.784153 
L 489.003463 206.753887 
L 484.725027 207.074965 
L 480.788564 209.34454 
L 481.018521 212.604724 
L 480.329038 212.419287 
L 479.735948 211.216922 
L 475.017017 209.671024 
L 473.812904 211.178859 
L 473.184871 210.517161 
L 466.08091 208.978312 
L 465.766333 206.707951 
L 461.531825 207.457711 
L 459.83566 210.810553 
L 456.296905 215.31053 
L 454.224051 214.265648 
L 452.076331 215.245245 
L 450.037013 214.123436 
L 451.187391 213.462086 
L 453.236865 209.432007 
L 452.91355 208.341818 
L 453.869325 207.856031 
L 454.319699 208.698764 
L 457.012969 208.877001 
L 458.222627 208.426768 
L 457.370529 207.809466 
L 457.693372 206.902077 
L 456.097579 205.354261 
L 455.437014 202.808914 
L 453.77226 201.812956 
L 454.100535 199.749778 
L 452.03571 198.111664 
L 450.155806 197.883872 
L 446.787565 195.986976 
L 443.749724 196.589175 
L 442.659805 197.487126 
L 440.731722 197.486182 
L 439.582288 198.909248 
L 436.208615 199.4943 
L 434.648248 200.429062 
L 432.526506 198.94134 
L 429.596595 198.918686 
L 426.768945 198.244437 
L 424.79599 199.548259 
L 424.477398 197.916279 
L 421.939999 196.260073 
L 422.832246 193.805654 
L 424.099528 192.220555 
L 425.097105 192.575771 
L 423.91815 189.839759 
L 428.06811 184.775809 
L 430.33604 184.067265 
L 430.82609 182.359303 
L 428.527695 177.043807 
L 430.712257 176.80642 
L 433.216828 175.156349 
L 436.757236 175.021216 
L 441.373865 175.498351 
L 446.474641 176.959487 
L 450.073855 177.08172 
L 451.79222 177.961579 
L 453.507042 176.900179 
L 454.704891 178.323717 
L 458.829108 178.032056 
L 460.6469 178.620412 
L 460.94093 175.556085 
L 462.348969 174.219385 
L 466.272181 173.858193 
" clip-path="url(#p2629dfb520)" style="fill: #3a80f5; stroke: #ffffff; stroke-width: 0.3"/>
    <path d="M 428.331438 162.833127 
L 428.52982 165.526507 
L 429.797575 167.842489 
L 429.77136 170.269535 
L 427.03062 171.512319 
L 428.440548 174.33328 
L 428.527695 177.043807 
L 430.82609 182.359303 
L 430.33604 184.067265 
L 428.06811 184.775809 
L 423.91815 189.839759 
L 425.097105 192.575771 
L 419.756382 189.880346 
L 416.466549 190.740856 
L 414.30891 190.115688 
L 411.608791 191.420611 
L 409.304019 189.262572 
L 407.425059 190.088945 
L 405.063843 186.723361 
L 401.666081 186.35556 
L 401.232475 184.449224 
L 398.098277 183.768368 
L 397.415985 185.340568 
L 394.933378 184.081109 
L 395.218434 182.406025 
L 391.801542 181.876348 
L 389.635401 179.91621 
L 387.76211 176.028657 
L 388.118252 173.929612 
L 386.987476 170.672889 
L 385.328153 168.502895 
L 386.602284 166.877837 
L 385.534565 163.779688 
L 388.656954 161.991653 
L 401.544454 157.115851 
L 406.105584 158.144372 
L 406.450154 159.629262 
L 416.486151 160.397586 
L 424.889985 160.306186 
L 427.233961 160.957468 
L 428.331438 162.833127 
" clip-path="url(#p2629dfb520)" style="fill: #377df4; stroke: #ffffff; stroke-width: 0.3"/>
    <path d="M 398.605096 198.0791 
L 398.258164 200.567027 
L 395.684395 200.578982 
L 396.569556 201.898536 
L 395.052407 205.818181 
L 394.18118 206.845758 
L 390.184258 206.997409 
L 387.878069 208.378787 
L 377.567879 206.334644 
L 376.546921 204.216878 
L 372.030427 205.275131 
L 371.499047 206.43328 
L 366.398272 205.402084 
L 364.330377 204.29349 
L 365.029437 202.803093 
L 364.852546 201.722658 
L 366.232009 201.386949 
L 368.544574 203.077764 
L 369.195456 201.470955 
L 373.225914 201.730524 
L 376.493311 200.638762 
L 378.68425 200.825651 
L 380.109529 202.072211 
L 380.535578 201.037554 
L 379.887766 197.070557 
L 381.529612 196.297514 
L 383.140993 193.490396 
L 386.536393 195.450062 
L 389.107328 192.959303 
L 390.715874 192.504665 
L 394.263367 194.362705 
L 396.40967 194.04666 
L 398.516532 195.196314 
L 398.149526 195.969356 
L 398.605096 198.0791 
" clip-path="url(#p2629dfb520)" style="fill: #7fb9fc; stroke: #ffffff; stroke-width: 0.3"/>
    <path d="M 421.939999 196.260073 
L 424.477398 197.916279 
L 424.79599 199.548259 
L 422.00471 200.825337 
L 419.841875 204.954525 
L 417.078935 209.083398 
L 413.414775 210.231793 
L 410.562327 209.962313 
L 405.352441 212.472264 
L 401.577517 211.301531 
L 396.709132 207.940824 
L 395.821137 205.885511 
L 395.052407 205.818181 
L 396.569556 201.898536 
L 395.684395 200.578982 
L 398.258164 200.567027 
L 398.605096 198.0791 
L 402.615244 200.301795 
L 406.451335 199.55581 
L 406.819286 198.333162 
L 413.500976 196.836631 
L 414.572711 195.404126 
L 416.070494 195.032707 
L 420.964858 196.882881 
L 421.939999 196.260073 
" clip-path="url(#p2629dfb520)" style="fill: #66a9fa; stroke: #ffffff; stroke-width: 0.3"/>
    <path d="M 442.659805 197.487126 
L 443.749724 196.589175 
L 446.787565 195.986976 
L 450.155806 197.883872 
L 452.03571 198.111664 
L 454.100535 199.749778 
L 453.77226 201.812956 
L 455.437014 202.808914 
L 456.097579 205.354261 
L 457.693372 206.902077 
L 457.370529 207.809466 
L 458.222627 208.426768 
L 457.012969 208.877001 
L 454.319699 208.698764 
L 453.869325 207.856031 
L 452.91355 208.341818 
L 453.236865 209.432007 
L 451.187391 213.462086 
L 450.037013 214.123436 
L 449.218451 211.345264 
L 449.700944 208.745644 
L 449.554756 206.073345 
L 444.052965 198.080515 
L 442.659805 197.487126 
" clip-path="url(#p2629dfb520)" style="fill: #71b0fb; stroke: #ffffff; stroke-width: 0.3"/>
    <path d="M 450.037013 214.123436 
L 452.076331 215.245245 
L 454.224051 214.265648 
L 456.296905 215.31053 
L 456.403181 216.880843 
L 454.186972 218.190957 
L 452.798772 217.620692 
L 451.520153 224.965858 
L 448.833024 224.326532 
L 445.507293 222.113276 
L 440.12713 223.528791 
L 437.860853 225.081641 
L 431.149169 224.761349 
L 427.637574 223.8118 
L 425.86678 224.257629 
L 423.715045 220.693199 
L 424.774026 219.665622 
L 423.646556 218.907524 
L 422.21183 220.271911 
L 419.547136 218.503068 
L 419.188396 215.993275 
L 416.404201 214.561242 
L 415.891714 212.623915 
L 413.414775 210.231793 
L 417.078935 209.083398 
L 419.841875 204.954525 
L 422.00471 200.825337 
L 426.768945 198.244437 
L 429.596595 198.918686 
L 432.526506 198.94134 
L 434.648248 200.429062 
L 436.208615 199.4943 
L 439.582288 198.909248 
L 440.731722 197.486182 
L 442.659805 197.487126 
L 444.052965 198.080515 
L 449.554756 206.073345 
L 449.700944 208.745644 
L 449.218451 211.345264 
L 450.037013 214.123436 
" clip-path="url(#p2629dfb520)" style="fill: #2968ed; stroke: #ffffff; stroke-width: 0.3"/>
    <path d="M 442.088512 152.466896 
L 442.517867 155.194098 
L 438.771048 157.143695 
L 437.710413 160.580857 
L 432.748741 162.874501 
L 428.331438 162.833127 
L 427.233961 160.957468 
L 424.889985 160.306186 
L 424.524159 158.752392 
L 425.011848 157.085174 
L 422.99166 156.118792 
L 418.205461 155.052201 
L 417.233626 149.934292 
L 422.468073 148.066813 
L 430.132698 148.457267 
L 434.622505 147.855382 
L 435.263468 149.121763 
L 437.695299 149.512847 
L 442.088512 152.466896 
" clip-path="url(#p2629dfb520)" style="fill: #1f52dc; stroke: #ffffff; stroke-width: 0.3"/>
    <path d="M 445.716539 141.145924 
L 447.918578 142.54791 
L 448.308256 145.500386 
L 449.777227 149.093761 
L 442.088512 152.466896 
L 437.695299 149.512847 
L 435.263468 149.121763 
L 434.622505 147.855382 
L 430.132698 148.457267 
L 422.468073 148.066813 
L 417.233626 149.934292 
L 417.391859 145.350937 
L 419.637825 141.527411 
L 423.945073 139.448187 
L 427.574281 143.99709 
L 431.240803 143.878632 
L 432.118879 139.20435 
L 436.011414 138.128319 
L 441.947756 141.134597 
L 445.716539 141.145924 
" clip-path="url(#p2629dfb520)" style="fill: #2765ec; stroke: #ffffff; stroke-width: 0.3"/>
    <path d="M 448.883386 128.963903 
L 449.571524 130.026629 
L 446.319639 133.535122 
L 447.674851 139.213631 
L 445.716539 141.145924 
L 441.947756 141.134597 
L 436.011414 138.128319 
L 432.118879 139.20435 
L 432.649314 135.612233 
L 430.968736 136.379613 
L 428.068346 134.215911 
L 427.671818 130.718183 
L 433.450399 129.021862 
L 439.208669 128.137598 
L 444.167035 129.143938 
L 448.883386 128.963903 
" clip-path="url(#p2629dfb520)" style="fill: #1d49c9; stroke: #ffffff; stroke-width: 0.3"/>
    <path d="M 385.534565 163.779688 
L 386.602284 166.877837 
L 385.328153 168.502895 
L 386.987476 170.672889 
L 388.118252 173.929612 
L 387.76211 176.028657 
L 389.635401 179.91621 
L 387.595847 180.551446 
L 386.390677 179.851712 
L 385.244549 181.010647 
L 381.962746 182.189875 
L 380.265873 183.706858 
L 376.94463 185.032546 
L 377.74477 186.842133 
L 378.228444 189.409661 
L 380.560612 190.873 
L 383.140993 193.490396 
L 381.529612 196.297514 
L 379.887766 197.070557 
L 380.535578 201.037554 
L 380.109529 202.072211 
L 378.68425 200.825651 
L 376.493311 200.638762 
L 373.225914 201.730524 
L 369.195456 201.470955 
L 368.544574 203.077764 
L 366.232009 201.386949 
L 364.852546 201.722658 
L 359.955112 199.861 
L 359.016813 201.183699 
L 355.129709 201.141067 
L 355.70974 196.803437 
L 358.020416 192.634292 
L 351.43461 191.512955 
L 349.277916 189.918731 
L 349.535813 187.24942 
L 348.623256 185.874493 
L 349.142355 181.760722 
L 348.37457 175.380679 
L 351.120033 175.378162 
L 352.278442 173.086407 
L 353.417248 167.511814 
L 352.563025 165.453198 
L 353.455508 164.163849 
L 357.275303 163.83286 
L 358.122913 165.175381 
L 361.226173 162.173823 
L 360.181362 159.891506 
L 359.971644 156.438769 
L 363.42585 157.241702 
L 366.350093 156.314806 
L 366.430863 158.667757 
L 371.049146 160.086575 
L 371.000495 162.247446 
L 375.647354 161.104085 
L 378.216635 159.436552 
L 383.376453 161.840631 
L 385.534565 163.779688 
" clip-path="url(#p2629dfb520)" style="fill: #377df4; stroke: #ffffff; stroke-width: 0.3"/>
    <path d="M 424.552027 221.754442 
L 425.86678 224.257629 
L 427.637574 223.8118 
L 431.149169 224.761349 
L 437.860853 225.081641 
L 440.12713 223.528791 
L 445.507293 222.113276 
L 448.833024 224.326532 
L 451.520153 224.965858 
L 449.148309 227.488237 
L 447.479304 231.843171 
L 448.954651 235.31683 
L 445.019841 234.500211 
L 440.364243 236.415513 
L 440.314412 239.447591 
L 436.160437 240.022417 
L 432.94051 237.895055 
L 429.281782 239.568251 
L 425.90126 239.392216 
L 425.576764 235.365912 
L 423.287815 233.411752 
L 424.039541 232.552659 
L 423.544059 231.828383 
L 424.312788 229.891057 
L 426.055006 227.987552 
L 423.834546 225.359458 
L 423.424557 223.135662 
L 424.552027 221.754442 
" clip-path="url(#p2629dfb520)" style="fill: #2a6aed; stroke: #ffffff; stroke-width: 0.3"/>
    <path d="M 441.154701 276.154227 
L 440.583408 277.950285 
L 434.002326 278.46785 
L 434.048142 277.46324 
L 428.472431 276.275988 
L 429.317916 273.688324 
L 431.816346 275.740018 
L 435.373522 275.39314 
L 438.77459 275.825283 
L 438.664063 276.884795 
L 441.154701 276.154227 
" clip-path="url(#p2629dfb520)" style="fill: #5298f8; stroke: #ffffff; stroke-width: 0.3"/>
    <path d="M 425.90126 239.392216 
L 429.281782 239.568251 
L 432.94051 237.895055 
L 436.160437 240.022417 
L 440.314412 239.447591 
L 440.364243 236.415513 
L 442.590607 238.027671 
L 441.17572 241.83814 
L 440.089579 242.520884 
L 434.920314 241.772382 
L 429.385696 243.354965 
L 432.553666 246.777497 
L 430.231889 247.769836 
L 427.686461 247.775971 
L 425.2688 244.640381 
L 424.411035 245.976452 
L 425.432229 249.612774 
L 427.71858 252.470075 
L 425.995964 253.804101 
L 428.541156 256.610275 
L 430.803418 258.375972 
L 430.871907 261.815808 
L 426.644484 260.202392 
L 427.992536 263.30762 
L 425.090492 263.946788 
L 426.823736 269.319861 
L 423.788257 269.396001 
L 420.040729 266.747614 
L 418.326852 261.876846 
L 417.527184 257.826 
L 413.403439 251.555449 
L 413.094057 249.821687 
L 415.219105 246.868739 
L 415.493297 244.890039 
L 416.978563 244.007191 
L 417.070197 242.407618 
L 420.059623 241.868502 
L 421.801841 240.537622 
L 424.278544 240.655608 
L 425.030158 239.594315 
L 425.90126 239.392216 
" clip-path="url(#p2629dfb520)" style="fill: #5298f8; stroke: #ffffff; stroke-width: 0.3"/>
    <path d="M 417.070197 242.407618 
L 416.978563 244.007191 
L 415.493297 244.890039 
L 415.219105 246.868739 
L 413.094057 249.821687 
L 412.317062 249.395523 
L 412.225664 248.055991 
L 409.69417 246.01169 
L 409.296462 243.110813 
L 409.682598 238.956455 
L 410.30632 237.06648 
L 409.537354 236.107177 
L 409.229862 234.16985 
L 411.211319 231.171281 
L 411.501807 232.316844 
L 412.731572 231.777795 
L 413.705262 233.411752 
L 414.798421 234.035145 
L 415.10598 236.241995 
L 414.525241 238.313983 
L 415.174233 240.925087 
L 417.070197 242.407618 
" clip-path="url(#p2629dfb520)" style="fill: #1d4acb; stroke: #ffffff; stroke-width: 0.3"/>
    <path d="M 396.709132 207.940824 
L 401.577517 211.301531 
L 405.352441 212.472264 
L 407.06059 211.562705 
L 408.170881 213.92113 
L 409.622847 215.656307 
L 407.863381 217.947272 
L 405.796439 216.599564 
L 402.636499 216.683885 
L 398.707829 215.672983 
L 396.572626 215.807958 
L 395.581898 217.071193 
L 393.942177 215.672983 
L 392.985457 218.200081 
L 396.213886 222.933671 
L 400.057062 226.555677 
L 401.782512 229.099293 
L 405.827451 231.404148 
L 405.324809 232.439235 
L 401.028661 230.186493 
L 398.378137 227.994632 
L 394.198184 226.185044 
L 390.355008 221.704101 
L 391.277247 221.249148 
L 389.193529 218.688542 
L 389.108036 216.63323 
L 386.170095 215.672983 
L 384.769377 218.301077 
L 383.419908 216.262597 
L 383.685362 214.050128 
L 386.870336 214.258097 
L 387.707318 213.23052 
L 389.261782 214.224432 
L 391.055249 214.342418 
L 391.038244 212.640905 
L 392.626716 212.017626 
L 393.07095 209.558173 
L 396.709132 207.940824 
" clip-path="url(#p2629dfb520)" style="fill: #2563eb; stroke: #ffffff; stroke-width: 0.3"/>
    <path d="M 364.852546 201.722658 
L 365.029437 202.803093 
L 364.330377 204.29349 
L 366.398272 205.402084 
L 368.730203 205.567579 
L 368.367684 208.063686 
L 366.354344 209.090634 
L 362.972642 208.32766 
L 361.982858 210.783023 
L 359.805853 210.976519 
L 359.013743 210.011553 
L 356.451546 212.076461 
L 354.24809 212.36592 
L 352.281748 211.061784 
L 350.711934 208.391844 
L 348.529733 209.345798 
L 348.597277 206.589021 
L 351.93954 203.167748 
L 351.792642 201.620718 
L 353.874944 202.181072 
L 355.129709 201.141067 
L 359.016813 201.183699 
L 359.955112 199.861 
L 364.852546 201.722658 
" clip-path="url(#p2629dfb520)" style="fill: #3a80f5; stroke: #ffffff; stroke-width: 0.3"/>
    <path d="M 348.623256 185.874493 
L 349.535813 187.24942 
L 349.277916 189.918731 
L 347.959149 190.047414 
L 346.936774 189.518838 
L 347.43202 186.104172 
L 348.623256 185.874493 
" clip-path="url(#p2629dfb520)" style="fill: #5096f8; stroke: #ffffff; stroke-width: 0.3"/>
    <path d="M 349.142355 181.760722 
L 348.623256 185.874493 
L 347.43202 186.104172 
L 346.936774 189.518838 
L 342.938671 186.743183 
L 340.593277 187.217328 
L 335.279241 181.902934 
L 333.154902 181.802567 
L 332.492921 179.661518 
L 336.155428 178.460423 
L 339.501232 178.938502 
L 343.737394 177.673537 
L 346.630227 180.3386 
L 349.142355 181.760722 
" clip-path="url(#p2629dfb520)" style="fill: #3377f2; stroke: #ffffff; stroke-width: 0.3"/>
    <path d="M 352.563025 165.453198 
L 353.417248 167.511814 
L 352.278442 173.086407 
L 351.120033 175.378162 
L 348.37457 175.380679 
L 349.142355 181.760722 
L 346.630227 180.3386 
L 343.737394 177.673537 
L 339.501232 178.938502 
L 336.155428 178.46058 
L 338.510504 176.787542 
L 342.512622 167.829904 
L 348.76543 165.281254 
L 352.563025 165.453198 
" clip-path="url(#p2629dfb520)" style="fill: #71b0fb; stroke: #ffffff; stroke-width: 0.3"/>
    <path d="M 279.715077 236.088771 
L 281.373455 234.541584 
L 283.238481 233.654017 
L 284.384136 236.634809 
L 287.083547 236.627573 
L 287.865974 235.858778 
L 290.529015 236.071624 
L 291.806452 239.125411 
L 289.694866 240.773751 
L 289.635942 245.524016 
L 288.893781 246.415044 
L 288.71016 249.292639 
L 286.73567 249.793843 
L 288.566451 253.443851 
L 287.304837 257.444041 
L 288.880674 259.2541 
L 288.253527 260.909362 
L 286.559842 263.192466 
L 286.940901 265.20845 
L 285.104215 266.788515 
L 282.69482 265.932411 
L 280.336438 266.60257 
L 281.034553 261.838146 
L 280.605434 258.094379 
L 278.560447 257.532766 
L 277.467694 255.225594 
L 277.831394 251.239877 
L 279.653437 249.02961 
L 280.931347 242.907406 
L 280.83003 240.327765 
L 279.916293 238.141252 
L 279.715077 236.088771 
" clip-path="url(#p2629dfb520)" style="fill: #5ba0f9; stroke: #ffffff; stroke-width: 0.3"/>
    <path d="M 286.940901 265.20845 
L 286.559842 263.192466 
L 288.253527 260.909362 
L 288.880674 259.2541 
L 287.304837 257.444041 
L 288.566451 253.443851 
L 286.73567 249.793843 
L 288.71016 249.292639 
L 288.893781 246.415044 
L 289.635942 245.524016 
L 289.694866 240.773751 
L 291.806452 239.125411 
L 290.529015 236.071624 
L 287.865974 235.858778 
L 287.083547 236.627573 
L 284.384136 236.634809 
L 283.238481 233.654017 
L 281.373455 234.541584 
L 279.715077 236.088771 
L 279.945342 231.752558 
L 278.078663 229.111092 
L 284.544023 224.716987 
L 290.136502 225.815513 
L 296.272406 225.776971 
L 301.135241 226.816819 
L 312.316067 226.69899 
L 314.137638 229.0661 
L 322.550446 231.833103 
L 324.211894 230.516853 
L 329.354236 233.270956 
L 334.651977 232.48171 
L 334.896411 236.018452 
L 330.565546 240.073544 
L 324.709738 241.360376 
L 324.302111 243.408609 
L 321.493118 246.783947 
L 319.731771 251.739664 
L 321.514137 255.218987 
L 318.870699 257.935334 
L 317.882332 261.892892 
L 314.431904 263.106258 
L 311.195918 267.787776 
L 301.039003 267.76528 
L 298.176636 269.915296 
L 296.431111 272.215862 
L 294.195064 271.710725 
L 292.502914 269.653682 
L 291.207292 266.151392 
L 286.940901 265.20845 
" clip-path="url(#p2629dfb520)" style="fill: #377cf4; stroke: #ffffff; stroke-width: 0.3"/>
    <path d="M 292.680277 163.106697 
L 293.433892 167.456282 
L 289.97945 172.893539 
L 281.877676 176.49069 
L 275.408774 175.570401 
L 279.114263 169.213012 
L 276.727541 163.022691 
L 286.399601 155.410563 
L 287.341679 158.672634 
L 286.399601 161.935334 
L 289.225953 161.851643 
L 292.680277 163.106697 
" clip-path="url(#p2629dfb520)" style="fill: #589ef9; stroke: #ffffff; stroke-width: 0.3"/>
    <path d="M 368.730203 205.567579 
L 371.499047 206.43328 
L 372.030427 205.275131 
L 376.546921 204.216878 
L 377.567879 206.334644 
L 384.103145 207.907001 
L 383.607899 210.905728 
L 384.702542 213.497954 
L 381.064596 212.611016 
L 377.348951 214.771886 
L 377.601651 217.79421 
L 377.042167 219.528758 
L 378.540187 222.628481 
L 382.825471 225.694853 
L 385.123867 230.728284 
L 390.209292 235.634762 
L 393.790557 235.597164 
L 394.904329 236.942831 
L 393.622168 238.155725 
L 401.070699 242.198075 
L 404.989686 245.373309 
L 405.462968 246.510377 
L 404.608981 248.690597 
L 402.072527 245.847926 
L 398.102056 244.845991 
L 396.178697 248.784199 
L 399.481755 251.041189 
L 398.939511 254.21831 
L 397.030322 254.579346 
L 394.58928 259.80124 
L 392.684105 260.270351 
L 392.701818 258.40885 
L 393.634213 255.143318 
L 394.627539 253.8428 
L 391.447997 247.244091 
L 389.550853 246.485521 
L 388.20162 243.857742 
L 385.26486 242.750878 
L 383.287418 240.303695 
L 379.905951 239.909151 
L 372.15418 233.197647 
L 369.046669 229.690481 
L 367.621154 223.67179 
L 365.34732 222.963875 
L 361.629313 220.954341 
L 359.525284 221.776938 
L 356.88468 224.602462 
L 354.98541 225.048763 
L 355.508288 222.406038 
L 353.031112 221.633625 
L 351.85381 216.922688 
L 353.438267 215.068266 
L 352.093285 212.782174 
L 352.281748 211.061784 
L 354.24809 212.36592 
L 356.451546 212.076461 
L 359.013743 210.011553 
L 359.805853 210.976519 
L 361.982858 210.783023 
L 362.972642 208.32766 
L 366.354344 209.090634 
L 368.367684 208.063686 
L 368.730203 205.567579 
" clip-path="url(#p2629dfb520)" style="fill: #4288f7; stroke: #ffffff; stroke-width: 0.3"/>
    <path d="M 388.466601 258.83942 
L 391.935922 258.308012 
L 390.290061 263.10028 
L 390.974007 264.986636 
L 390.014688 268.117507 
L 386.519625 265.824336 
L 384.195723 265.167391 
L 377.817037 262.071916 
L 378.456583 258.945922 
L 383.804627 259.5025 
L 388.466601 258.83942 
" clip-path="url(#p2629dfb520)" style="fill: #4288f7; stroke: #ffffff; stroke-width: 0.3"/>
    <path d="M 360.81146 242.059009 
L 363.09663 240.171551 
L 365.838551 244.494236 
L 365.196644 252.547002 
L 363.118594 252.16284 
L 361.254513 254.195499 
L 359.524104 252.580667 
L 359.341073 245.235187 
L 358.297915 241.754449 
L 360.81146 242.059009 
" clip-path="url(#p2629dfb520)" style="fill: #4288f7; stroke: #ffffff; stroke-width: 0.3"/>
    <path d="M 366.350093 156.314806 
L 363.42585 157.241702 
L 359.971644 156.438769 
L 358.116537 153.059814 
L 357.977906 146.83567 
L 360.050288 143.365315 
L 364.076731 142.987446 
L 365.681263 141.3078 
L 369.357704 139.590399 
L 369.202777 142.721585 
L 367.849529 144.70469 
L 368.397914 146.409663 
L 370.875798 147.331211 
L 369.758955 149.628001 
L 368.397914 148.966651 
L 365.107372 153.350374 
L 366.350093 156.314806 
" clip-path="url(#p2629dfb520)" style="fill: #2056df; stroke: #ffffff; stroke-width: 0.3"/>
    <path d="M 377.542373 149.445201 
L 379.000716 152.498044 
L 376.258559 157.429535 
L 371.476139 153.990486 
L 370.838011 151.46323 
L 377.542373 149.445201 
" clip-path="url(#p2629dfb520)" style="fill: #2056df; stroke: #ffffff; stroke-width: 0.3"/>
    <path d="M 292.680277 163.106697 
L 289.225953 161.851643 
L 286.399601 161.935334 
L 287.341679 158.672634 
L 286.399601 155.410563 
L 290.230851 155.159489 
L 295.129585 158.923707 
L 292.680277 163.106697 
" clip-path="url(#p2629dfb520)" style="fill: #79b5fb; stroke: #ffffff; stroke-width: 0.3"/>
    <path d="M 306.866261 165.925751 
L 307.5464 162.391703 
L 304.415864 158.555906 
L 298.866957 157.484595 
L 297.777628 155.836885 
L 299.438486 153.116132 
L 297.935507 151.438689 
L 295.474864 154.317542 
L 295.207048 148.449087 
L 292.899206 145.344015 
L 294.558882 139.049552 
L 298.109091 134.110825 
L 301.758373 134.592836 
L 307.272208 134.080463 
L 302.387527 140.668003 
L 307.043715 139.833922 
L 312.051322 139.865699 
L 310.85985 144.826451 
L 306.75122 150.283058 
L 311.476723 150.671467 
L 315.909849 158.495183 
L 319.038143 159.473049 
L 323.153385 168.815006 
L 328.690365 169.974728 
L 328.134896 173.868416 
L 325.806743 175.653777 
L 327.63162 178.803526 
L 323.520628 181.991974 
L 317.406452 181.935655 
L 309.625867 183.609795 
L 307.494916 182.411217 
L 304.473253 185.263798 
L 300.245593 184.572873 
L 297.034995 186.897665 
L 294.605762 185.68194 
L 301.308235 179.28711 
L 305.399153 177.971962 
L 298.226231 176.952407 
L 296.933206 174.529609 
L 301.708778 172.642465 
L 299.20586 169.362932 
L 300.074253 165.375013 
L 306.866261 165.925751 
" clip-path="url(#p2629dfb520)" style="fill: #79b5fb; stroke: #ffffff; stroke-width: 0.3"/>
    <path d="M 254.698651 86.463445 
L 253.643212 90.403541 
L 258.807045 94.556326 
L 252.86539 99.199303 
L 235.743736 104.482234 
L 216.975394 101.658441 
L 221.474647 98.967736 
L 211.52745 95.990404 
L 219.619541 94.810231 
L 219.42293 93.022511 
L 209.831285 91.606367 
L 212.919193 87.640786 
L 219.845672 86.740004 
L 226.96888 90.870135 
L 233.912954 87.555049 
L 239.663195 89.276541 
L 247.116212 86.031774 
L 254.698651 86.463445 
" clip-path="url(#p2629dfb520)" style="fill: #1d4dd5; stroke: #ffffff; stroke-width: 0.3"/>
    <path d="M 384.103145 207.907001 
L 387.878069 208.378787 
L 390.184258 206.997409 
L 394.18118 206.845758 
L 395.052407 205.818181 
L 395.821137 205.885511 
L 396.709132 207.940824 
L 393.07095 209.558173 
L 392.626716 212.017626 
L 391.038244 212.640905 
L 391.055249 214.342418 
L 389.261782 214.224432 
L 387.707318 213.23052 
L 386.870336 214.258097 
L 383.685362 214.050128 
L 384.702542 213.497954 
L 383.607899 210.905728 
L 384.103145 207.907001 
" clip-path="url(#p2629dfb520)" style="fill: #5ba0f9; stroke: #ffffff; stroke-width: 0.3"/>
    <path d="M 451.674844 70.579412 
L 451.007667 74.842317 
L 458.006768 78.89914 
L 453.789264 83.489888 
L 459.104625 90.420395 
L 456.027909 95.640065 
L 460.142207 100.171191 
L 458.273875 104.13866 
L 465.038697 108.310008 
L 463.31986 111.415079 
L 449.289538 122.704116 
L 440.995523 123.188487 
L 432.958695 125.420778 
L 425.52339 126.705093 
L 422.87759 123.383557 
L 418.451313 121.385035 
L 419.468728 115.386952 
L 417.249213 109.894793 
L 419.428343 106.349241 
L 423.572163 102.525243 
L 434.027596 95.922129 
L 437.078426 94.649141 
L 436.603018 92.07422 
L 430.247476 89.19694 
L 428.705057 86.827785 
L 428.584375 77.451848 
L 415.358917 70.326922 
L 418.098004 68.718383 
L 423.176816 71.93735 
L 429.144568 71.635935 
L 434.051213 73.107454 
L 438.409001 70.412973 
L 440.650244 65.94902 
L 447.746174 63.885685 
L 453.610957 66.307068 
L 451.674844 70.579412 
" clip-path="url(#p2629dfb520)" style="fill: #2460e8; stroke: #ffffff; stroke-width: 0.3"/>
    <path d="M 424.099528 192.220555 
L 422.832246 193.805654 
L 421.939999 196.260073 
L 420.964858 196.882881 
L 416.070494 195.032707 
L 414.572711 195.404126 
L 413.500976 196.836631 
L 406.819286 198.333162 
L 406.451335 199.55581 
L 402.615244 200.301795 
L 398.605096 198.0791 
L 398.149526 195.969356 
L 399.164108 193.856939 
L 401.188783 193.960137 
L 402.749388 193.33025 
L 402.872904 192.763919 
L 403.74791 192.474775 
L 404.047372 191.089464 
L 405.096198 190.824704 
L 405.804468 189.728695 
L 407.167163 189.721301 
L 407.425059 190.088945 
L 409.304019 189.262572 
L 411.608791 191.420611 
L 414.30891 190.115688 
L 416.466549 190.740856 
L 419.756382 189.880346 
L 424.099528 192.220555 
" clip-path="url(#p2629dfb520)" style="fill: #71b0fb; stroke: #ffffff; stroke-width: 0.3"/>
    <path d="M 389.635401 179.91621 
L 391.801542 181.876348 
L 395.218434 182.406025 
L 394.933378 184.081109 
L 397.415985 185.340568 
L 398.098277 183.768368 
L 401.232475 184.449224 
L 401.666081 186.35556 
L 405.063843 186.723361 
L 407.167163 189.721301 
L 405.804468 189.728695 
L 405.096198 190.824704 
L 404.047372 191.089464 
L 403.74791 192.474775 
L 402.872904 192.763919 
L 402.749388 193.33025 
L 401.188783 193.960137 
L 399.164108 193.856939 
L 398.516532 195.196314 
L 396.40967 194.04666 
L 394.263367 194.362705 
L 390.715874 192.504665 
L 389.107328 192.959303 
L 386.536393 195.450062 
L 383.140993 193.490396 
L 380.560612 190.873 
L 378.228444 189.409661 
L 377.74477 186.842133 
L 376.94463 185.032546 
L 380.265873 183.706858 
L 381.962746 182.189875 
L 385.244549 181.010647 
L 386.390677 179.851712 
L 387.595847 180.551446 
L 389.635401 179.91621 
" clip-path="url(#p2629dfb520)" style="fill: #2b6cee; stroke: #ffffff; stroke-width: 0.3"/>
    <path d="M 405.827451 231.404148 
L 401.782512 229.099293 
L 400.057062 226.555677 
L 396.213886 222.933671 
L 392.985457 218.200081 
L 393.942177 215.672983 
L 395.581898 217.071193 
L 396.572626 215.807958 
L 398.707829 215.672983 
L 402.636499 216.683885 
L 405.796439 216.599564 
L 407.86336 217.947299 
L 409.520267 217.930434 
L 408.375811 220.608921 
L 410.579307 222.950534 
L 409.913162 225.814353 
L 407.982961 226.639762 
L 406.496886 228.054837 
L 405.827451 231.404148 
" clip-path="url(#p2629dfb520)" style="fill: #3e85f6; stroke: #ffffff; stroke-width: 0.3"/>
    <path d="M 423.287815 233.411752 
L 425.576764 235.365912 
L 425.90126 239.392216 
L 425.030158 239.594315 
L 424.278544 240.655608 
L 421.801841 240.537622 
L 420.059623 241.868502 
L 417.070197 242.407618 
L 415.174233 240.925087 
L 414.525241 238.313983 
L 415.105976 236.241966 
L 415.686675 236.292494 
L 415.891646 235.045886 
L 421.1698 233.512939 
L 423.287815 233.411752 
" clip-path="url(#p2629dfb520)" style="fill: #1f54dd; stroke: #ffffff; stroke-width: 0.3"/>
    <path d="M 407.06059 211.562705 
L 410.562327 209.962313 
L 413.414775 210.231793 
L 415.891714 212.623915 
L 416.404201 214.561242 
L 419.188396 215.993275 
L 419.547136 218.503068 
L 422.21183 220.271911 
L 423.646556 218.907524 
L 424.774026 219.665622 
L 423.715045 220.693199 
L 424.552027 221.754442 
L 423.424557 223.135662 
L 423.834546 225.359458 
L 426.055006 227.987552 
L 424.312788 229.891057 
L 423.544059 231.828383 
L 424.039541 232.552659 
L 423.287815 233.411752 
L 419.613921 233.868599 
L 419.461662 233.41181 
L 420.520702 231.205056 
L 419.871604 231.238725 
L 416.130756 227.616835 
L 415.310872 227.953769 
L 414.678866 229.975252 
L 413.585641 230.413254 
L 413.961399 229.891049 
L 410.717508 227.971608 
L 408.836984 226.083827 
L 409.913162 225.814353 
L 410.579307 222.950534 
L 408.375811 220.608921 
L 409.520267 217.930434 
L 407.86336 217.947299 
L 409.622847 215.656307 
L 408.170881 213.92113 
L 407.06059 211.562705 
" clip-path="url(#p2629dfb520)" style="fill: #569cf9; stroke: #ffffff; stroke-width: 0.3"/>
    <path d="M 412.731572 231.777795 
L 411.501807 232.316844 
L 411.211319 231.171281 
L 409.229862 234.16985 
L 409.537351 236.107158 
L 408.580782 235.635491 
L 407.299678 233.647676 
L 405.324812 232.439229 
L 406.496886 228.054837 
L 408.836984 226.083827 
L 410.717508 227.971608 
L 413.961399 229.891049 
L 412.731572 231.777795 
" clip-path="url(#p2629dfb520)" style="fill: #387ef5; stroke: #ffffff; stroke-width: 0.3"/>
    <path d="M 415.105976 236.241966 
L 414.798421 234.035145 
L 413.705262 233.411752 
L 412.731572 231.777795 
L 413.585641 230.413254 
L 414.678866 229.975252 
L 415.310872 227.953769 
L 416.130756 227.616835 
L 419.871604 231.238725 
L 420.520702 231.205056 
L 419.461662 233.41181 
L 419.613921 233.868599 
L 415.891646 235.045886 
L 415.686675 236.292494 
L 415.105976 236.241966 
" clip-path="url(#p2629dfb520)" style="fill: #2f71f0; stroke: #ffffff; stroke-width: 0.3"/>
   </g>
  </g>
 </g>
 <defs>
  <clipPath id="p2629dfb520">
   <rect x="71.819379" y="0" width="432.361242" height="478.574102"/>
  </clipPath>
 </defs>
</svg>
