<?xml version="1.0" encoding="utf-8" standalone="no"?>
<!DOCTYPE svg PUBLIC "-//W3C//DTD SVG 1.1//EN"
  "http://www.w3.org/Graphics/SVG/1.1/DTD/svg11.dtd">
<svg xmlns:xlink="http://www.w3.org/1999/xlink" width="576pt" height="395.238773pt" viewBox="0 0 576 395.238773" xmlns="http://www.w3.org/2000/svg" version="1.1">
 <metadata>
  <rdf:RDF xmlns:dc="http://purl.org/dc/elements/1.1/" xmlns:cc="http://creativecommons.org/ns#" xmlns:rdf="http://www.w3.org/1999/02/22-rdf-syntax-ns#">
   <cc:Work>
    <dc:type rdf:resource="http://purl.org/dc/dcmitype/StillImage"/>
    <dc:date>2026-02-16T09:38:25.658839</dc:date>
    <dc:format>image/svg+xml</dc:format>
    <dc:creator>
     <cc:Agent>
      <dc:title>Matplotlib v3.5.1, https://matplotlib.org/</dc:title>
     </cc:Agent>
    </dc:creator>
   </cc:Work>
  </rdf:RDF>
 </metadata>
 <defs>
  <style type="text/css">*{stroke-linejoin: round; stroke-linecap: butt}</style>
 </defs>
 <g id="figure_1">
  <g id="patch_1">
   <path d="M 0 395.238773 
L 576 395.238773 
L 576 0 
L 0 0 
L 0 395.238773 
z
" style="fill: none"/>
  </g>
  <g id="axes_1">
   <g id="PatchCollection_1">
    <path d="M 155.884589 254.470898 
L 156.133591 255.476431 
L 155.064493 257.35388 
L 154.556627 257.776603 
L 153.999424 257.39651 
L 155.884589 254.470898 
" clip-path="url(#p1bcb05f96b)" style="fill: #71b0fb; stroke: #ffffff; stroke-width: 0.3"/>
    <path d="M 176.700417 260.561471 
L 175.273301 261.149542 
L 174.614397 262.570162 
L 175.990576 263.205148 
L 175.536979 264.072277 
L 176.418321 264.120352 
L 175.324363 265.125868 
L 174.531414 265.204392 
L 173.504272 267.055163 
L 171.246348 267.861769 
L 169.196855 269.246826 
L 169.282366 268.016511 
L 170.490232 267.055918 
L 171.29041 262.916069 
L 170.560844 261.226542 
L 169.892456 260.784764 
L 169.772957 259.179995 
L 168.179482 258.434465 
L 168.894779 257.755316 
L 169.65527 257.813617 
L 170.180528 258.224285 
L 170.185483 258.853121 
L 170.586859 258.921818 
L 171.519688 257.229321 
L 171.003102 256.128669 
L 169.628016 255.84558 
L 168.516798 256.646534 
L 167.041367 260.895894 
L 167.914733 263.469365 
L 169.23655 264.270319 
L 168.924368 265.84656 
L 168.111705 266.422553 
L 167.356027 266.297239 
L 166.716798 265.090146 
L 166.052214 264.679248 
L 162.567161 264.736542 
L 161.915289 263.224859 
L 162.347493 263.060961 
L 160.995944 261.724779 
L 161.656233 261.477926 
L 162.659675 262.232076 
L 164.011223 260.158352 
L 164.324644 258.02801 
L 163.131664 255.932394 
L 161.986997 255.230332 
L 161.794249 254.646987 
L 162.081775 253.81302 
L 162.763735 254.10175 
L 162.183538 253.378943 
L 162.540263 252.059689 
L 161.834976 250.776568 
L 162.290771 249.857673 
L 161.922579 249.01973 
L 162.964423 248.272374 
L 163.728773 248.789484 
L 164.430989 247.751972 
L 165.644639 248.649355 
L 168.483653 247.840187 
L 170.02863 249.066881 
L 169.842195 249.509814 
L 171.117352 251.591215 
L 172.480613 252.839481 
L 172.718967 254.645247 
L 173.881634 255.19364 
L 175.126111 257.483086 
L 177.242195 258.418805 
L 177.248488 259.565925 
L 176.700417 260.561471 
" clip-path="url(#p1bcb05f96b)" style="fill: #71b0fb; stroke: #ffffff; stroke-width: 0.3"/>
    <path d="M 154.843983 294.267976 
L 155.436137 294.437074 
L 154.938133 295.165557 
L 154.814252 294.736017 
L 154.843983 294.267976 
" clip-path="url(#p1bcb05f96b)" style="fill: #71b0fb; stroke: #ffffff; stroke-width: 0.3"/>
    <path d="M 157.564424 290.18243 
L 158.077294 291.089071 
L 157.973233 291.204571 
L 157.105259 291.112569 
L 156.638997 290.213307 
L 157.564424 290.18243 
" clip-path="url(#p1bcb05f96b)" style="fill: #71b0fb; stroke: #ffffff; stroke-width: 0.3"/>
    <path d="M 169.453343 280.909178 
L 169.035862 282.468812 
L 168.375278 283.174641 
L 166.582461 283.669837 
L 165.847755 283.42507 
L 164.912074 280.540783 
L 165.629278 280.456699 
L 166.779948 279.176684 
L 169.453343 280.909178 
" clip-path="url(#p1bcb05f96b)" style="fill: #71b0fb; stroke: #ffffff; stroke-width: 0.3"/>
    <path d="M 175.198972 272.270046 
L 175.745782 273.339237 
L 175.284258 276.517979 
L 174.948579 277.520922 
L 174.142926 278.22414 
L 173.831446 280.942034 
L 172.434073 281.478275 
L 172.14658 279.136212 
L 172.428307 279.252773 
L 173.344994 277.824252 
L 173.660362 276.819103 
L 173.483192 275.386599 
L 175.198972 272.270046 
" clip-path="url(#p1bcb05f96b)" style="fill: #71b0fb; stroke: #ffffff; stroke-width: 0.3"/>
    <path d="M 162.534554 279.109485 
L 163.175335 279.787777 
L 162.418938 280.053691 
L 161.342678 278.780795 
L 162.534554 279.109485 
" clip-path="url(#p1bcb05f96b)" style="fill: #71b0fb; stroke: #ffffff; stroke-width: 0.3"/>
    <path d="M 152.967177 298.060618 
L 152.96346 297.729215 
L 153.218656 297.705813 
L 153.283075 298.185932 
L 152.967177 298.060618 
" clip-path="url(#p1bcb05f96b)" style="fill: #71b0fb; stroke: #ffffff; stroke-width: 0.3"/>
    <path d="M 151.994706 289.670605 
L 152.112394 289.530947 
L 152.402277 289.759683 
L 152.180528 289.901605 
L 151.994706 289.670605 
" clip-path="url(#p1bcb05f96b)" style="fill: #71b0fb; stroke: #ffffff; stroke-width: 0.3"/>
    <path d="M 158.327534 288.502767 
L 157.672201 288.367639 
L 157.799799 287.870911 
L 157.997114 287.770823 
L 158.327534 288.502767 
" clip-path="url(#p1bcb05f96b)" style="fill: #71b0fb; stroke: #ffffff; stroke-width: 0.3"/>
    <path d="M 150.480873 272.155301 
L 150.521754 272.122085 
L 150.566351 272.190026 
L 150.499455 272.257968 
L 150.480873 272.155301 
" clip-path="url(#p1bcb05f96b)" style="fill: #71b0fb; stroke: #ffffff; stroke-width: 0.3"/>
    <path d="M 158.367176 272.187007 
L 158.57282 272.484439 
L 158.263116 272.767529 
L 157.722992 272.377998 
L 158.367176 272.187007 
" clip-path="url(#p1bcb05f96b)" style="fill: #71b0fb; stroke: #ffffff; stroke-width: 0.3"/>
    <path d="M 158.170205 253.205678 
L 158.107025 253.968131 
L 157.508677 254.264809 
L 157.039166 254.024749 
L 156.907851 253.398933 
L 156.453205 253.619365 
L 156.82485 252.968637 
L 157.813426 253.616346 
L 158.170205 253.205678 
" clip-path="url(#p1bcb05f96b)" style="fill: #71b0fb; stroke: #ffffff; stroke-width: 0.3"/>
    <path d="M 177.465302 220.83362 
L 180.003337 221.53691 
L 180.765723 221.40927 
L 182.338855 219.652546 
L 184.566239 219.822836 
L 185.512652 221.436088 
L 185.630732 223.210238 
L 185.15805 224.602145 
L 184.154374 224.472487 
L 184.067657 225.262872 
L 183.48343 225.718682 
L 182.110264 225.465002 
L 182.176499 227.128611 
L 183.726758 227.50833 
L 185.228362 227.188496 
L 186.922813 227.673522 
L 188.147475 227.265192 
L 186.731002 229.832733 
L 188.281931 229.885307 
L 187.634676 230.450694 
L 187.810846 230.808754 
L 188.55228 230.934347 
L 188.75271 230.483783 
L 189.26573 231.083189 
L 189.570609 230.499468 
L 189.834347 231.016002 
L 188.557354 231.327313 
L 188.155751 232.515244 
L 189.009295 233.230139 
L 190.865685 233.254178 
L 189.358641 234.262094 
L 189.63242 234.588967 
L 188.953548 235.40049 
L 189.596494 235.361235 
L 189.577912 235.71604 
L 188.552172 236.31468 
L 187.841091 236.218807 
L 187.686239 237.179801 
L 187.182283 237.134058 
L 186.726027 235.744859 
L 185.776542 235.484085 
L 184.996974 236.545398 
L 182.427781 236.969156 
L 181.688331 235.633167 
L 179.835774 235.825392 
L 178.397781 234.681628 
L 177.589894 231.640539 
L 176.30923 229.558179 
L 175.31176 228.850158 
L 173.994911 229.340068 
L 174.554218 230.725432 
L 174.268665 231.58685 
L 171.891413 230.699546 
L 172.215513 229.548112 
L 171.762403 227.878485 
L 171.927599 225.897751 
L 172.669409 224.308657 
L 174.112908 223.002868 
L 176.682888 223.005265 
L 177.465302 220.83362 
" clip-path="url(#p1bcb05f96b)" style="fill: #2a6aee; stroke: #ffffff; stroke-width: 0.3"/>
    <path d="M 159.736831 223.711434 
L 160.026356 223.013249 
L 161.741712 222.292321 
L 160.600762 221.562328 
L 161.569457 220.948725 
L 161.613358 220.520337 
L 162.195119 220.445824 
L 162.3511 219.862085 
L 163.603653 221.547985 
L 165.134614 220.978993 
L 165.253756 219.786792 
L 164.496884 220.306349 
L 163.673771 219.875546 
L 163.664341 219.413801 
L 164.118609 219.865592 
L 165.067933 219.636566 
L 166.303833 218.405949 
L 166.028016 217.317498 
L 166.627603 216.331592 
L 168.821546 215.828825 
L 169.724643 214.811213 
L 171.792394 214.769251 
L 171.687525 215.127278 
L 172.297715 215.02931 
L 172.839027 215.702001 
L 174.516012 214.278169 
L 174.404609 215.988554 
L 173.823886 217.057811 
L 174.512923 217.116102 
L 174.556027 218.357757 
L 175.644946 220.420912 
L 177.465302 220.83362 
L 176.682888 223.005265 
L 174.112908 223.002868 
L 172.669409 224.308657 
L 171.927599 225.897751 
L 171.762403 227.878485 
L 172.215513 229.548112 
L 171.891413 230.699546 
L 169.614853 229.60276 
L 167.765443 230.500131 
L 166.92137 231.283412 
L 166.76876 232.196602 
L 165.717529 232.562301 
L 165.588236 230.575893 
L 164.502801 229.565657 
L 164.463094 228.8631 
L 164.987788 227.814251 
L 166.085949 227.289826 
L 166.551645 226.360338 
L 167.281654 225.932265 
L 167.201416 224.515743 
L 165.491243 225.029622 
L 163.126578 223.518664 
L 159.736831 223.711434 
" clip-path="url(#p1bcb05f96b)" style="fill: #6cadfb; stroke: #ffffff; stroke-width: 0.3"/>
    <path d="M 156.361522 226.055489 
L 156.925194 227.005947 
L 156.769239 226.338762 
L 157.185346 224.827292 
L 155.946141 223.768461 
L 156.420824 223.217585 
L 157.226227 223.983308 
L 156.700838 222.678775 
L 156.949764 221.950633 
L 158.303997 222.336861 
L 158.595119 222.687891 
L 158.289682 223.304321 
L 159.016364 223.87361 
L 163.126578 223.518664 
L 165.491243 225.029622 
L 167.089712 224.393025 
L 167.350093 225.206986 
L 167.281654 225.932265 
L 166.551645 226.360338 
L 166.085949 227.289826 
L 164.987788 227.814251 
L 164.502801 229.565657 
L 163.60592 229.425695 
L 162.859309 228.708724 
L 161.48156 230.125215 
L 161.126499 229.957263 
L 162.568767 232.660954 
L 162.29158 233.247816 
L 160.090903 232.697538 
L 158.045617 230.924848 
L 158.121135 229.750404 
L 156.368483 228.750929 
L 155.522836 227.225111 
L 156.361522 226.055489 
" clip-path="url(#p1bcb05f96b)" style="fill: #589ef9; stroke: #ffffff; stroke-width: 0.3"/>
    <path d="M 162.29158 233.247816 
L 160.787823 234.502908 
L 161.523353 235.123762 
L 162.892668 234.514742 
L 164.351476 234.861763 
L 164.905004 236.87833 
L 164.386243 238.374161 
L 161.711383 239.752652 
L 161.765797 239.267753 
L 161.155308 238.858818 
L 161.135141 238.06595 
L 162.078927 237.505005 
L 162.344618 236.798963 
L 161.900757 236.042772 
L 160.612349 236.006808 
L 159.044708 236.896282 
L 158.553025 236.564832 
L 157.585188 238.458914 
L 156.768456 238.890709 
L 155.879947 240.113547 
L 155.232111 240.207436 
L 156.360785 238.46148 
L 156.093272 237.910591 
L 156.663441 237.875766 
L 157.039166 237.311909 
L 156.502343 237.358837 
L 155.698766 235.652628 
L 155.115793 235.808112 
L 153.68061 233.563696 
L 153.588856 232.588569 
L 154.337952 230.455294 
L 155.526122 231.312474 
L 155.252091 232.367259 
L 155.627546 231.867853 
L 156.494455 232.580576 
L 156.241759 233.783541 
L 155.941385 233.169297 
L 156.05487 234.521484 
L 156.831826 235.200734 
L 157.406722 234.507161 
L 159.232547 235.069563 
L 158.137692 233.520137 
L 158.35687 231.908599 
L 157.379901 231.036531 
L 156.50332 231.400981 
L 156.102292 230.766665 
L 155.3254 230.984081 
L 155.123641 230.315403 
L 155.366764 230.380372 
L 155.511071 229.623227 
L 155.052104 229.931959 
L 154.766498 229.184851 
L 154.68046 230.126724 
L 154.108126 230.322245 
L 154.044457 229.853841 
L 154.420308 229.562056 
L 153.897528 228.671268 
L 152.367118 228.011062 
L 152.568026 227.153403 
L 152.966189 226.942965 
L 152.661252 226.252265 
L 152.797436 225.317816 
L 153.771168 225.47802 
L 154.209663 224.80703 
L 154.265816 225.477153 
L 154.633204 225.651768 
L 156.253756 225.742237 
L 155.522836 227.225111 
L 156.368483 228.750929 
L 158.121135 229.750404 
L 158.045617 230.924848 
L 160.090903 232.697538 
L 162.29158 233.247816 
" clip-path="url(#p1bcb05f96b)" style="fill: #4b91f8; stroke: #ffffff; stroke-width: 0.3"/>
    <path d="M 142.111405 238.250468 
L 142.428567 238.833043 
L 140.607508 238.753778 
L 140.840805 239.434703 
L 140.508215 240.147633 
L 139.943937 239.557142 
L 138.674211 239.787543 
L 137.879712 239.358926 
L 138.242607 238.373306 
L 138.461878 238.969681 
L 138.674954 238.361982 
L 138.508841 236.627879 
L 138.798836 236.230886 
L 139.390004 236.954639 
L 141.046791 235.913153 
L 141.078258 236.541151 
L 141.675367 236.973712 
L 141.55794 237.695069 
L 142.111405 238.250468 
" clip-path="url(#p1bcb05f96b)" style="fill: #4b91f8; stroke: #ffffff; stroke-width: 0.3"/>
    <path d="M 145.453757 232.418616 
L 146.544238 232.093033 
L 146.744857 232.485067 
L 145.489682 233.703464 
L 145.432138 234.855027 
L 144.995973 234.776356 
L 144.950797 235.580912 
L 144.658079 235.501577 
L 144.689996 233.87133 
L 143.679838 232.936517 
L 144.79099 232.584695 
L 144.702215 231.466212 
L 145.24068 231.767133 
L 145.608843 229.108457 
L 145.848306 230.175509 
L 145.453757 232.418616 
" clip-path="url(#p1bcb05f96b)" style="fill: #4b91f8; stroke: #ffffff; stroke-width: 0.3"/>
    <path d="M 152.421004 224.579469 
L 152.519632 225.403407 
L 151.468237 227.652542 
L 150.242756 228.892695 
L 149.175802 228.868534 
L 149.287967 228.240579 
L 149.819432 228.79668 
L 150.150109 228.601062 
L 149.71097 228.218836 
L 150.306359 227.805298 
L 150.148682 227.099908 
L 150.61836 226.696778 
L 150.700526 225.743434 
L 151.499205 225.553669 
L 151.699841 225.11217 
L 151.922191 225.366612 
L 152.171742 225.160486 
L 151.958795 224.688514 
L 152.421004 224.579469 
" clip-path="url(#p1bcb05f96b)" style="fill: #4b91f8; stroke: #ffffff; stroke-width: 0.3"/>
    <path d="M 155.780528 217.85197 
L 156.13483 218.267168 
L 155.151626 218.532571 
L 154.938133 219.256094 
L 154.331079 218.393817 
L 153.965223 218.424665 
L 153.80586 217.864042 
L 154.420308 218.116187 
L 153.962284 217.072205 
L 154.289082 217.081903 
L 154.445047 216.038974 
L 155.641781 216.532397 
L 155.634532 217.320036 
L 156.09271 217.610401 
L 155.780528 217.85197 
" clip-path="url(#p1bcb05f96b)" style="fill: #4b91f8; stroke: #ffffff; stroke-width: 0.3"/>
    <path d="M 148.719547 208.458209 
L 149.245858 208.324234 
L 148.803988 208.855359 
L 148.906401 209.395182 
L 148.490228 209.59173 
L 148.172433 211.25306 
L 147.317442 211.99949 
L 146.574775 211.666863 
L 147.118626 207.539471 
L 147.439831 207.697097 
L 147.372717 208.204286 
L 148.227379 207.65831 
L 148.719547 208.458209 
" clip-path="url(#p1bcb05f96b)" style="fill: #4b91f8; stroke: #ffffff; stroke-width: 0.3"/>
    <path d="M 150.852517 202.155987 
L 151.241506 202.57043 
L 151.029004 203.36521 
L 149.470057 206.12561 
L 149.434027 206.401379 
L 149.947287 206.027013 
L 150.062597 207.379047 
L 149.196087 208.076807 
L 148.612008 207.621136 
L 149.214818 207.577193 
L 149.244334 207.046442 
L 148.606524 207.281056 
L 148.670741 206.516768 
L 148.321177 207.266173 
L 147.446706 207.051091 
L 148.107915 206.678274 
L 148.050366 205.614199 
L 148.694263 205.10475 
L 148.164162 205.073629 
L 148.926434 203.714651 
L 148.363011 203.075924 
L 148.88352 201.625015 
L 149.72133 201.684761 
L 150.40585 200.753069 
L 151.033868 200.646681 
L 151.394904 201.854964 
L 150.852517 202.155987 
" clip-path="url(#p1bcb05f96b)" style="fill: #4b91f8; stroke: #ffffff; stroke-width: 0.3"/>
    <path d="M 142.436 235.571854 
L 142.170894 236.555495 
L 141.527948 236.327513 
L 141.484589 235.284235 
L 142.042057 235.934963 
L 141.876055 235.257058 
L 142.436 235.571854 
" clip-path="url(#p1bcb05f96b)" style="fill: #4b91f8; stroke: #ffffff; stroke-width: 0.3"/>
    <path d="M 143.248664 234.534614 
L 143.126021 235.830786 
L 142.146117 234.749762 
L 142.888168 234.987557 
L 143.248664 234.534614 
" clip-path="url(#p1bcb05f96b)" style="fill: #4b91f8; stroke: #ffffff; stroke-width: 0.3"/>
    <path d="M 144.385897 234.059779 
L 144.328911 235.020018 
L 143.475367 234.544428 
L 143.423337 234.088465 
L 143.895326 234.231897 
L 143.728086 233.514738 
L 144.385897 234.059779 
" clip-path="url(#p1bcb05f96b)" style="fill: #4b91f8; stroke: #ffffff; stroke-width: 0.3"/>
    <path d="M 146.024851 226.637554 
L 146.239166 227.209772 
L 145.89973 227.609117 
L 145.10441 227.378871 
L 146.024851 226.637554 
" clip-path="url(#p1bcb05f96b)" style="fill: #4b91f8; stroke: #ffffff; stroke-width: 0.3"/>
    <path d="M 152.424575 223.036657 
L 152.736757 223.140834 
L 151.621822 223.4126 
L 152.209021 222.789049 
L 152.424575 223.036657 
" clip-path="url(#p1bcb05f96b)" style="fill: #4b91f8; stroke: #ffffff; stroke-width: 0.3"/>
    <path d="M 164.430989 247.751972 
L 166.212599 245.188587 
L 166.332765 244.313653 
L 166.985621 244.478977 
L 166.948456 243.731621 
L 167.881285 242.369772 
L 167.564148 241.631475 
L 168.300005 241.377827 
L 167.780941 240.617638 
L 169.357954 238.717542 
L 166.004478 239.224838 
L 168.713769 237.554989 
L 168.234347 237.062036 
L 168.516798 236.259572 
L 168.212049 235.617148 
L 165.901657 233.617405 
L 165.717529 232.562301 
L 166.76876 232.196602 
L 166.92137 231.283412 
L 167.765443 230.500131 
L 169.614853 229.60276 
L 174.056269 231.665466 
L 174.554218 230.725432 
L 174.065709 229.219268 
L 175.31176 228.850158 
L 176.30923 229.558179 
L 177.589894 231.640539 
L 178.397781 234.681628 
L 179.337826 235.497986 
L 178.094922 236.036313 
L 176.125154 239.044805 
L 175.853761 240.071125 
L 175.116671 240.280607 
L 174.470046 241.710552 
L 174.606137 242.91903 
L 175.744417 244.934279 
L 175.17331 246.1859 
L 175.562701 247.866073 
L 174.492859 247.677682 
L 173.446617 248.620593 
L 170.02863 249.066881 
L 168.162701 247.720825 
L 165.644639 248.649355 
L 164.430989 247.751972 
" clip-path="url(#p1bcb05f96b)" style="fill: #1e52db; stroke: #ffffff; stroke-width: 0.3"/>
    <path d="M 161.515008 246.973183 
L 162.139372 247.480479 
L 161.456784 248.703425 
L 160.875779 247.167193 
L 161.028154 246.808613 
L 161.515008 246.973183 
" clip-path="url(#p1bcb05f96b)" style="fill: #1e52db; stroke: #ffffff; stroke-width: 0.3"/>
    <path d="M 165.425951 241.261572 
L 166.31666 241.261572 
L 165.80379 241.611848 
L 164.700005 243.796543 
L 164.571168 242.884617 
L 162.867796 243.416071 
L 162.428016 242.655126 
L 164.711154 240.974708 
L 165.425951 241.261572 
" clip-path="url(#p1bcb05f96b)" style="fill: #1e52db; stroke: #ffffff; stroke-width: 0.3"/>
    <path d="M 161.627741 240.617638 
L 162.213701 241.845113 
L 162.280597 244.466898 
L 160.325745 246.657632 
L 159.115421 247.216262 
L 159.323543 246.075601 
L 158.595119 246.075601 
L 160.16346 245.061763 
L 159.318587 245.078371 
L 158.87633 244.575605 
L 159.099317 242.884617 
L 159.645635 241.803594 
L 159.229393 240.858453 
L 159.842607 241.124179 
L 161.627741 240.617638 
" clip-path="url(#p1bcb05f96b)" style="fill: #1e52db; stroke: #ffffff; stroke-width: 0.3"/>
    <path d="M 162.897527 245.153862 
L 163.188649 245.534334 
L 162.39209 246.015963 
L 162.488718 245.430157 
L 162.897527 245.153862 
" clip-path="url(#p1bcb05f96b)" style="fill: #1e52db; stroke: #ffffff; stroke-width: 0.3"/>
    <path d="M 165.985896 239.680801 
L 166.049076 240.300578 
L 165.693535 240.785227 
L 165.254995 239.748742 
L 165.829805 239.238427 
L 165.985896 239.680801 
" clip-path="url(#p1bcb05f96b)" style="fill: #1e52db; stroke: #ffffff; stroke-width: 0.3"/>
    <path d="M 187.686239 237.179801 
L 187.436586 238.024881 
L 186.919214 237.716883 
L 184.791126 240.826747 
L 185.618655 241.631475 
L 184.994292 242.066301 
L 184.450913 241.907272 
L 184.897563 242.929188 
L 184.050314 243.416071 
L 182.96864 246.710585 
L 181.215902 253.037334 
L 181.347231 254.056323 
L 181.962909 254.53884 
L 181.338545 257.786441 
L 180.356164 259.124132 
L 179.944877 261.5202 
L 179.450589 262.484969 
L 179.3552 262.105252 
L 178.210534 262.105252 
L 177.644395 260.869472 
L 176.700417 260.561471 
L 177.248488 259.565925 
L 177.242195 258.418805 
L 175.126111 257.483086 
L 173.881634 255.19364 
L 172.718967 254.645247 
L 172.480613 252.839481 
L 171.405265 251.958409 
L 169.842195 249.509814 
L 170.02863 249.066881 
L 173.446617 248.620593 
L 174.492859 247.677682 
L 175.562701 247.866073 
L 175.17331 246.1859 
L 175.744417 244.934279 
L 174.606137 242.91903 
L 174.470046 241.710552 
L 174.942035 240.496321 
L 175.853761 240.071125 
L 176.125154 239.044805 
L 178.335636 235.840732 
L 179.337826 235.497986 
L 180.228312 235.875725 
L 181.688331 235.633167 
L 182.136721 236.808569 
L 182.622869 236.968197 
L 184.996974 236.545398 
L 185.472109 235.657615 
L 185.994444 235.499904 
L 186.726027 235.744859 
L 187.182283 237.134058 
L 187.686239 237.179801 
" clip-path="url(#p1bcb05f96b)" style="fill: #2563eb; stroke: #ffffff; stroke-width: 0.3"/>
    <path d="M 226.810089 209.784521 
L 228.61301 209.540467 
L 229.317233 208.99458 
L 229.117809 209.681636 
L 229.366015 209.640543 
L 229.921975 209.20966 
L 229.326568 210.228941 
L 229.84917 210.322611 
L 229.287436 211.593208 
L 229.205164 213.472767 
L 229.77195 213.450516 
L 230.769859 214.812263 
L 230.774744 215.387961 
L 229.912528 216.373867 
L 230.990298 216.468985 
L 230.575295 216.838133 
L 231.510601 216.711309 
L 228.894542 218.023647 
L 228.761856 218.537943 
L 226.225188 220.058721 
L 225.447992 221.410213 
L 224.829668 221.579494 
L 224.575706 222.362105 
L 222.968486 221.968878 
L 222.431992 220.898457 
L 222.490991 220.026014 
L 220.990853 219.597462 
L 220.341868 217.158934 
L 219.385303 217.128734 
L 218.649787 217.637819 
L 214.714973 216.326277 
L 214.908488 213.687855 
L 217.460375 211.925231 
L 218.551456 211.780942 
L 219.831333 212.267977 
L 221.719289 211.566187 
L 222.694733 210.723464 
L 226.289715 210.734968 
L 226.810089 209.784521 
" clip-path="url(#p1bcb05f96b)" style="fill: #3073f1; stroke: #ffffff; stroke-width: 0.3"/>
    <path d="M 213.86235 213.20668 
L 214.614387 212.179615 
L 214.686238 210.542981 
L 213.352033 208.834631 
L 215.529872 209.35778 
L 219.116245 206.689946 
L 221.312666 207.197242 
L 222.26036 206.37968 
L 222.60599 207.621499 
L 223.375295 207.06136 
L 224.204063 207.654715 
L 223.999658 208.190697 
L 225.304132 208.998446 
L 226.113079 209.020338 
L 226.810089 209.784521 
L 226.10092 210.787699 
L 222.694733 210.723464 
L 221.719289 211.566187 
L 219.831333 212.267977 
L 218.551456 211.780942 
L 217.460375 211.925231 
L 214.908488 213.687855 
L 213.86235 213.20668 
" clip-path="url(#p1bcb05f96b)" style="fill: #83bbfc; stroke: #ffffff; stroke-width: 0.3"/>
    <path d="M 225.667105 203.365345 
L 225.356162 205.655727 
L 224.731799 205.392265 
L 224.956025 204.948381 
L 223.795254 205.898806 
L 223.776671 205.042744 
L 222.531661 204.758145 
L 222.739782 203.999465 
L 225.667105 203.365345 
" clip-path="url(#p1bcb05f96b)" style="fill: #83bbfc; stroke: #ffffff; stroke-width: 0.3"/>
    <path d="M 215.746665 206.298906 
L 215.901517 206.757888 
L 215.555887 207.122507 
L 215.384931 206.628044 
L 215.746665 206.298906 
" clip-path="url(#p1bcb05f96b)" style="fill: #83bbfc; stroke: #ffffff; stroke-width: 0.3"/>
    <path d="M 220.820856 204.847978 
L 221.171441 204.40032 
L 221.665729 204.552811 
L 221.353547 205.117479 
L 220.820856 204.847978 
" clip-path="url(#p1bcb05f96b)" style="fill: #83bbfc; stroke: #ffffff; stroke-width: 0.3"/>
    <path d="M 199.370754 233.89068 
L 198.138132 233.374325 
L 198.337581 233.627973 
L 197.609157 233.49511 
L 197.817278 234.13376 
L 197.304408 234.21076 
L 196.818981 233.431492 
L 197.263527 232.326517 
L 196.807154 231.446118 
L 196.018757 231.237668 
L 195.450925 231.833992 
L 195.839409 230.914709 
L 196.507849 231.219827 
L 196.984794 230.945041 
L 196.673851 230.945041 
L 196.46573 230.069352 
L 197.090093 229.737948 
L 196.338132 229.561301 
L 196.297931 229.080067 
L 196.610952 228.978259 
L 195.637762 228.418177 
L 196.626971 228.415997 
L 197.023411 229.062722 
L 197.977285 227.991318 
L 197.613902 227.563136 
L 197.871186 227.329831 
L 197.006191 227.070686 
L 197.630914 226.363123 
L 195.394154 226.27369 
L 195.955337 225.866041 
L 196.040816 225.233431 
L 195.754649 225.473491 
L 195.583693 224.818988 
L 196.040816 223.954622 
L 194.315348 223.587187 
L 191.618769 225.455864 
L 191.175903 225.334021 
L 191.308763 225.026163 
L 189.79021 225.726318 
L 191.065573 224.62247 
L 192.165497 224.405097 
L 192.237883 223.933293 
L 193.658155 223.591201 
L 195.907024 222.275713 
L 197.250388 220.605638 
L 199.92946 218.923935 
L 200.473891 215.419264 
L 201.121862 215.312189 
L 201.349055 213.717602 
L 203.621006 212.379295 
L 203.728293 211.576674 
L 203.292039 211.371744 
L 203.975284 211.027631 
L 205.337175 212.670044 
L 206.028973 214.395462 
L 206.785786 214.88603 
L 209.763271 213.823671 
L 212.631042 214.293349 
L 213.86235 213.20668 
L 214.696093 213.423245 
L 215.034352 214.987891 
L 214.714973 216.326277 
L 208.937828 217.269667 
L 207.574566 217.886609 
L 205.859673 220.735953 
L 205.500175 222.466938 
L 204.891309 223.383004 
L 204.095221 223.858054 
L 201.945311 223.963515 
L 202.049149 224.983123 
L 203.059992 226.332535 
L 201.57008 227.568337 
L 201.177542 228.708745 
L 200.065222 229.907157 
L 199.047299 229.355408 
L 199.910252 232.891201 
L 199.370754 233.89068 
" clip-path="url(#p1bcb05f96b)" style="fill: #235de6; stroke: #ffffff; stroke-width: 0.3"/>
    <path d="M 204.844369 209.782473 
L 204.164972 209.971518 
L 204.713768 209.341927 
L 204.391676 208.961455 
L 205.309639 208.16956 
L 205.640402 209.523859 
L 204.844369 209.782473 
" clip-path="url(#p1bcb05f96b)" style="fill: #235de6; stroke: #ffffff; stroke-width: 0.3"/>
    <path d="M 199.393052 213.387463 
L 199.287753 214.300898 
L 198.597732 214.456408 
L 198.707987 214.001955 
L 199.393052 213.387463 
" clip-path="url(#p1bcb05f96b)" style="fill: #235de6; stroke: #ffffff; stroke-width: 0.3"/>
    <path d="M 206.275915 210.414647 
L 205.540058 211.451887 
L 205.112667 211.443583 
L 205.355475 210.134578 
L 206.275915 210.414647 
" clip-path="url(#p1bcb05f96b)" style="fill: #235de6; stroke: #ffffff; stroke-width: 0.3"/>
    <path d="M 224.575706 222.362105 
L 223.79888 223.652856 
L 222.762124 227.820173 
L 222.232942 226.787438 
L 221.691935 226.740331 
L 220.463658 224.494212 
L 219.599383 224.117681 
L 218.936357 223.041679 
L 216.107876 222.228825 
L 214.103617 222.631085 
L 211.944694 223.772077 
L 211.545839 224.748782 
L 208.952997 225.765639 
L 208.68789 226.732672 
L 208.952997 227.519283 
L 208.130377 228.722278 
L 208.284036 229.249525 
L 207.746914 229.171009 
L 207.364587 229.655544 
L 206.340576 231.765574 
L 205.656831 231.468144 
L 205.1303 231.755252 
L 204.767301 233.147251 
L 204.88968 234.625203 
L 204.259572 234.722226 
L 204.174601 235.640239 
L 205.278668 237.383625 
L 204.614663 237.402498 
L 203.559191 236.319964 
L 201.678668 237.012212 
L 200.459131 236.105784 
L 199.184392 236.800248 
L 199.119181 235.92081 
L 200.424986 233.881621 
L 199.370754 233.89068 
L 199.878786 233.086303 
L 199.855187 232.180304 
L 198.974141 229.510722 
L 200.065222 229.907157 
L 201.177542 228.708745 
L 201.57008 227.568337 
L 202.975034 226.58468 
L 202.049149 224.983123 
L 201.945311 223.963515 
L 204.095221 223.858054 
L 204.891309 223.383004 
L 205.500175 222.466938 
L 205.859673 220.735953 
L 207.574566 217.886609 
L 213.380817 216.373255 
L 217.230674 216.925483 
L 218.649787 217.637819 
L 219.385303 217.128734 
L 220.341868 217.158934 
L 220.990853 219.597462 
L 222.490991 220.026014 
L 222.431992 220.898457 
L 222.968486 221.968878 
L 224.575706 222.362105 
" clip-path="url(#p1bcb05f96b)" style="fill: #4187f7; stroke: #ffffff; stroke-width: 0.3"/>
    <path d="M 198.185207 236.985036 
L 198.318999 237.446282 
L 197.996907 237.687097 
L 197.848249 237.139791 
L 198.185207 236.985036 
" clip-path="url(#p1bcb05f96b)" style="fill: #4187f7; stroke: #ffffff; stroke-width: 0.3"/>
    <path d="M 206.69959 174.50684 
L 206.728083 175.375736 
L 206.056645 176.154797 
L 206.090093 175.056411 
L 206.69959 174.50684 
" clip-path="url(#p1bcb05f96b)" style="fill: #2057e0; stroke: #ffffff; stroke-width: 0.3"/>
    <path d="M 206.231318 174.356614 
L 206.272199 174.254702 
L 206.581903 174.437389 
L 206.272199 174.50684 
L 206.231318 174.356614 
" clip-path="url(#p1bcb05f96b)" style="fill: #2057e0; stroke: #ffffff; stroke-width: 0.3"/>
    <path d="M 205.982316 174.170152 
L 206.179287 174.487967 
L 205.740747 174.629135 
L 205.536342 175.520677 
L 205.00489 175.030744 
L 204.706335 175.113784 
L 204.775709 175.833963 
L 204.081972 175.393853 
L 205.442192 174.116554 
L 205.982316 174.170152 
" clip-path="url(#p1bcb05f96b)" style="fill: #2057e0; stroke: #ffffff; stroke-width: 0.3"/>
    <path d="M 184.692014 201.178436 
L 187.474402 200.39253 
L 187.708047 199.562886 
L 190.450038 197.465763 
L 190.593432 196.812166 
L 193.229842 194.449894 
L 194.453053 193.939175 
L 195.841883 191.848223 
L 197.727237 190.315395 
L 199.352121 189.62945 
L 199.890148 187.945249 
L 199.237387 187.307242 
L 199.301582 186.915027 
L 201.024653 186.718469 
L 200.673691 186.361699 
L 202.381416 185.705986 
L 204.391676 185.504295 
L 204.444473 185.042535 
L 205.362148 184.966315 
L 206.241581 183.936783 
L 207.234178 184.657795 
L 208.273334 184.280746 
L 208.323678 184.619546 
L 209.815213 184.548585 
L 207.909678 185.513678 
L 209.811007 187.461816 
L 209.478255 187.87407 
L 209.315419 190.102156 
L 207.355091 191.27612 
L 207.475448 192.167739 
L 206.799718 193.846953 
L 202.630482 193.736699 
L 201.002906 195.797008 
L 199.41073 197.049588 
L 199.980264 197.762882 
L 199.796188 198.097 
L 197.379604 199.001081 
L 196.085568 198.811253 
L 194.034776 199.405665 
L 193.403884 199.12284 
L 191.818788 200.568604 
L 191.925772 201.247384 
L 191.301173 202.933309 
L 190.258078 204.461044 
L 190.397314 205.154206 
L 189.502109 205.979671 
L 189.660225 206.896217 
L 188.819298 207.970473 
L 186.1502 207.818035 
L 185.843407 206.905325 
L 186.105361 205.9279 
L 184.74682 205.353621 
L 184.588703 204.190683 
L 185.113398 202.868595 
L 184.692014 201.178436 
" clip-path="url(#p1bcb05f96b)" style="fill: #2057e0; stroke: #ffffff; stroke-width: 0.3"/>
    <path d="M 205.042054 176.268788 
L 205.540058 176.17216 
L 206.056645 176.661339 
L 205.27619 176.661339 
L 205.042054 176.268788 
" clip-path="url(#p1bcb05f96b)" style="fill: #2057e0; stroke: #ffffff; stroke-width: 0.3"/>
    <path d="M 210.439576 171.455514 
L 210.625399 172.67997 
L 209.815213 172.987971 
L 210.04811 173.295973 
L 209.815213 173.609258 
L 208.754786 173.482434 
L 207.710464 172.533519 
L 208.041228 171.029748 
L 209.297388 170.189539 
L 210.439576 171.455514 
" clip-path="url(#p1bcb05f96b)" style="fill: #2057e0; stroke: #ffffff; stroke-width: 0.3"/>
    <path d="M 193.289405 210.127028 
L 193.267106 211.001963 
L 192.703445 211.633819 
L 192.87564 213.840406 
L 191.69381 214.790831 
L 192.090231 216.58524 
L 190.481009 217.782519 
L 190.306336 217.483577 
L 190.824161 216.711309 
L 191.287478 216.797368 
L 191.143775 216.018306 
L 189.208744 215.191686 
L 187.377774 213.678856 
L 186.771993 214.178603 
L 186.988786 214.293349 
L 186.273989 214.211064 
L 186.9318 213.153442 
L 185.694223 212.605381 
L 184.050314 213.153442 
L 183.438339 212.956412 
L 183.219068 213.912877 
L 181.758504 213.053795 
L 181.122991 214.039701 
L 180.809571 213.659229 
L 180.394567 213.912877 
L 180.342537 212.911118 
L 179.469172 214.351476 
L 178.334416 215.043724 
L 177.692709 214.562095 
L 177.120376 214.938038 
L 176.934554 214.072916 
L 175.977639 213.087801 
L 174.949052 212.758341 
L 173.124758 215.244109 
L 172.571443 214.79989 
L 173.145781 213.445936 
L 173.07641 212.65878 
L 172.556577 212.389478 
L 172.300142 211.556818 
L 173.240404 210.238754 
L 172.452517 208.467747 
L 172.779564 207.275753 
L 174.918789 206.56524 
L 173.40145 206.301925 
L 173.612049 205.876159 
L 174.047895 205.504442 
L 174.556027 206.036199 
L 176.44586 206.012883 
L 176.550521 206.626534 
L 177.036137 206.825829 
L 177.3254 206.345234 
L 177.015055 205.679442 
L 178.252913 205.53376 
L 178.688007 206.079747 
L 177.90083 205.898806 
L 177.588649 206.796388 
L 180.714182 205.782551 
L 181.329873 204.017583 
L 182.573645 203.154727 
L 182.890735 202.24124 
L 183.477981 202.204301 
L 183.493128 201.411341 
L 183.772772 201.313175 
L 184.752841 201.283418 
L 185.114971 203.054109 
L 184.588703 204.190683 
L 184.74682 205.353621 
L 186.105361 205.9279 
L 185.843407 206.905325 
L 186.1502 207.818035 
L 188.819298 207.970473 
L 189.660225 206.896217 
L 189.502109 205.979671 
L 190.397314 205.154206 
L 191.554474 209.033224 
L 193.289405 210.127028 
" clip-path="url(#p1bcb05f96b)" style="fill: #569cf9; stroke: #ffffff; stroke-width: 0.3"/>
    <path d="M 193.338958 217.483577 
L 193.784931 217.942559 
L 192.496563 217.735715 
L 192.807505 217.356753 
L 193.338958 217.483577 
" clip-path="url(#p1bcb05f96b)" style="fill: #569cf9; stroke: #ffffff; stroke-width: 0.3"/>
    <path d="M 193.224987 216.077944 
L 192.922715 216.331592 
L 192.573369 215.547246 
L 192.703445 214.673066 
L 193.884037 214.738743 
L 194.595117 215.572158 
L 195.955337 214.79989 
L 196.776673 214.79989 
L 196.274952 215.437785 
L 195.487065 215.611413 
L 195.323541 216.58524 
L 194.689267 216.468985 
L 194.479907 215.813727 
L 193.960843 216.216846 
L 193.224987 216.077944 
" clip-path="url(#p1bcb05f96b)" style="fill: #569cf9; stroke: #ffffff; stroke-width: 0.3"/>
    <path d="M 208.77213 185.14798 
L 208.881146 185.890806 
L 210.943775 186.667603 
L 211.56924 185.985861 
L 213.684212 185.19617 
L 215.982257 185.765662 
L 220.202543 185.132235 
L 220.604516 185.46049 
L 223.694325 184.954088 
L 225.64001 183.964974 
L 226.419512 184.999799 
L 227.839413 190.051823 
L 226.901728 191.038835 
L 226.097773 190.843254 
L 224.765978 191.633247 
L 222.732492 192.097272 
L 221.804247 190.258429 
L 220.175885 189.755096 
L 219.876172 189.06577 
L 218.995126 189.170272 
L 217.388004 190.661096 
L 216.357494 189.743592 
L 213.864606 189.140551 
L 212.485611 191.812529 
L 210.898155 192.190269 
L 210.333342 193.32828 
L 208.875682 194.156622 
L 206.799718 193.846953 
L 207.475448 192.167739 
L 207.355091 191.27612 
L 209.41611 189.855763 
L 209.478255 187.87407 
L 209.801567 187.37553 
L 208.656208 186.633474 
L 207.909678 185.513678 
L 208.77213 185.14798 
" clip-path="url(#p1bcb05f96b)" style="fill: #7db7fc; stroke: #ffffff; stroke-width: 0.3"/>
    <path d="M 225.64001 183.964974 
L 228.249256 182.624781 
L 233.215812 182.88312 
L 233.283805 184.507971 
L 233.940657 185.581748 
L 235.964703 185.769659 
L 235.978862 187.767651 
L 235.523393 188.30358 
L 234.23565 188.053352 
L 234.182944 189.486173 
L 236.481531 190.762721 
L 237.622171 190.554677 
L 238.36162 191.94052 
L 241.2203 193.237201 
L 241.341444 193.903518 
L 240.452531 194.688238 
L 240.880468 195.959992 
L 241.992788 196.88229 
L 242.032908 200.362477 
L 241.100565 201.009243 
L 240.492468 200.503746 
L 239.664289 200.560645 
L 239.67096 201.033231 
L 239.158018 201.088371 
L 239.177587 200.644738 
L 238.64748 200.832791 
L 238.986669 201.575297 
L 238.129363 201.127127 
L 238.098089 201.567804 
L 235.994219 202.053676 
L 234.69312 201.707574 
L 230.6744 199.248094 
L 227.976258 199.55383 
L 227.552583 199.046534 
L 226.511978 200.187195 
L 225.880181 199.922979 
L 225.463939 200.566158 
L 224.71234 200.492634 
L 224.803737 199.35677 
L 223.984049 198.141101 
L 224.087887 195.077961 
L 226.074174 192.485557 
L 226.097773 190.843254 
L 226.901728 191.038835 
L 227.839413 190.051823 
L 226.419512 184.999799 
L 225.64001 183.964974 
" clip-path="url(#p1bcb05f96b)" style="fill: #1e51db; stroke: #ffffff; stroke-width: 0.3"/>
    <path d="M 235.338326 202.360607 
L 235.756024 202.909383 
L 233.820503 205.874783 
L 233.710739 206.732976 
L 234.66202 208.632619 
L 231.167268 210.105991 
L 230.763648 209.544601 
L 231.094359 208.961455 
L 230.549798 209.129375 
L 230.078733 208.301478 
L 230.475896 207.558967 
L 231.047577 207.529981 
L 232.237088 205.35924 
L 235.338326 202.360607 
" clip-path="url(#p1bcb05f96b)" style="fill: #1e51db; stroke: #ffffff; stroke-width: 0.3"/>
    <path d="M 233.215812 182.88312 
L 234.186444 183.200325 
L 236.578021 181.385112 
L 238.750675 180.767346 
L 239.958089 182.637166 
L 239.237514 182.910013 
L 238.16428 184.979944 
L 239.076131 184.118421 
L 239.421458 184.652207 
L 238.931721 185.039905 
L 240.40452 185.667269 
L 240.153822 186.803486 
L 240.66373 186.061063 
L 241.422369 186.150493 
L 241.422369 185.689247 
L 240.628811 185.628246 
L 240.439628 185.124283 
L 242.348933 183.902601 
L 242.184037 184.487864 
L 242.649055 184.721291 
L 242.023468 185.490669 
L 242.108426 186.708734 
L 243.194787 188.167441 
L 245.774993 188.967021 
L 246.605694 188.832799 
L 247.886357 190.210972 
L 248.032674 192.855627 
L 247.697562 195.075564 
L 248.370933 197.320908 
L 250.34542 198.553834 
L 250.964512 200.594489 
L 249.148141 200.212915 
L 247.966596 200.677899 
L 246.755157 200.174566 
L 246.048747 199.557144 
L 246.081786 198.599374 
L 245.137022 196.966178 
L 244.168658 196.087503 
L 243.490567 196.769639 
L 242.056507 195.398177 
L 240.502877 194.821022 
L 241.341444 193.903518 
L 241.069263 193.09435 
L 238.36162 191.94052 
L 237.535639 190.509616 
L 236.481531 190.762721 
L 234.333981 189.645322 
L 234.23565 188.053352 
L 235.523393 188.30358 
L 235.978862 187.767651 
L 235.964703 185.769659 
L 233.940657 185.581748 
L 233.283805 184.507971 
L 233.215812 182.88312 
" clip-path="url(#p1bcb05f96b)" style="fill: #5ca1fa; stroke: #ffffff; stroke-width: 0.3"/>
    <path d="M 242.585471 185.008381 
L 242.730559 185.435598 
L 243.094771 184.928302 
L 243.076189 185.853061 
L 243.795941 185.972336 
L 245.176116 185.024916 
L 245.493119 185.18195 
L 244.767173 186.068964 
L 245.117061 186.186927 
L 246.532313 185.842988 
L 246.686999 185.197605 
L 246.269953 185.405776 
L 245.825979 184.968448 
L 246.046058 184.667574 
L 246.538556 184.51105 
L 247.384989 185.237374 
L 247.998006 185.18195 
L 247.54033 184.424904 
L 248.308949 184.353065 
L 247.653429 183.159044 
L 249.29376 183.812936 
L 250.224354 183.39884 
L 249.850358 181.583578 
L 250.820039 180.896721 
L 251.233206 182.040027 
L 250.931182 182.462552 
L 251.572172 182.816306 
L 252.034069 180.704609 
L 250.420428 178.674221 
L 249.960148 176.544739 
L 252.34914 172.837357 
L 252.410311 171.846195 
L 253.971325 171.244658 
L 254.882807 172.046888 
L 255.435821 173.457658 
L 258.633546 173.947569 
L 260.219429 175.315675 
L 261.493799 175.155568 
L 261.194873 177.812206 
L 262.730411 179.319329 
L 262.05468 180.550337 
L 259.836331 180.63854 
L 257.890164 181.383473 
L 255.454701 180.964508 
L 254.436778 183.117814 
L 253.066436 182.572776 
L 252.46465 182.785614 
L 252.731324 184.503178 
L 251.977715 184.734711 
L 251.750374 185.554424 
L 250.208543 186.182871 
L 249.469094 185.770618 
L 248.639966 188.016441 
L 247.742401 187.958917 
L 246.605694 188.832799 
L 245.774993 188.967021 
L 243.194787 188.167441 
L 242.108426 186.708734 
L 242.023468 185.490669 
L 242.585471 185.008381 
" clip-path="url(#p1bcb05f96b)" style="fill: #3f86f6; stroke: #ffffff; stroke-width: 0.3"/>
    <path d="M 253.971325 171.244658 
L 257.068618 168.518934 
L 260.261934 164.250389 
L 262.097671 160.391483 
L 262.205124 158.343293 
L 261.48715 156.970413 
L 261.582864 155.641766 
L 260.723139 155.208686 
L 261.923215 151.350494 
L 263.340079 150.578423 
L 264.74962 150.579828 
L 267.475594 148.941826 
L 270.244113 148.130278 
L 270.933021 148.39736 
L 271.163869 149.582899 
L 269.603111 150.029766 
L 269.355932 150.943002 
L 269.781945 151.686482 
L 269.24742 152.570813 
L 267.397667 152.73206 
L 266.818377 153.93437 
L 265.958363 154.560742 
L 264.918847 153.961426 
L 264.997806 153.640518 
L 264.107709 154.775225 
L 264.117397 155.81021 
L 263.743474 155.933065 
L 263.625586 156.566392 
L 264.731935 156.509907 
L 265.440113 157.121406 
L 266.460083 156.157366 
L 266.571459 158.607646 
L 264.130644 159.369132 
L 262.349673 163.205008 
L 262.156157 170.577635 
L 262.953819 172.179672 
L 261.493799 175.155568 
L 260.219429 175.315675 
L 258.633546 173.947569 
L 255.435821 173.457658 
L 254.882807 172.046888 
L 253.971325 171.244658 
" clip-path="url(#p1bcb05f96b)" style="fill: #4d93f8; stroke: #ffffff; stroke-width: 0.3"/>
    <path d="M 266.474949 155.165421 
L 266.332485 155.762551 
L 264.940056 156.191337 
L 264.300827 155.326216 
L 266.474949 155.165421 
" clip-path="url(#p1bcb05f96b)" style="fill: #4d93f8; stroke: #ffffff; stroke-width: 0.3"/>
    <path d="M 266.41891 158.799585 
L 265.556042 160.383648 
L 265.827048 161.034807 
L 268.745875 162.478176 
L 270.817006 162.392807 
L 271.582115 161.698582 
L 272.244325 159.437663 
L 273.343993 158.811877 
L 275.097891 158.452578 
L 276.163217 159.365297 
L 276.895586 162.168621 
L 276.829508 165.014609 
L 275.192493 168.683666 
L 274.349206 169.548919 
L 270.938299 168.38598 
L 270.231889 168.730164 
L 269.948695 168.153009 
L 268.196043 168.43871 
L 265.102942 171.472609 
L 264.763896 170.484639 
L 263.466713 170.183598 
L 262.919206 171.08001 
L 262.290674 171.126029 
L 262.05232 168.769951 
L 262.44879 166.461811 
L 262.349673 163.205008 
L 264.130644 159.369132 
L 266.41891 158.799585 
" clip-path="url(#p1bcb05f96b)" style="fill: #79b5fb; stroke: #ffffff; stroke-width: 0.3"/>
    <path d="M 275.097891 158.452578 
L 279.393325 156.923595 
L 282.449449 154.817186 
L 283.468307 154.990838 
L 284.693152 154.58101 
L 289.347213 150.979473 
L 291.008079 148.261213 
L 292.330282 146.91733 
L 294.021266 142.63249 
L 297.225874 140.271352 
L 299.475004 139.624979 
L 302.659531 136.631751 
L 303.385478 131.785261 
L 304.540693 129.327035 
L 306.870819 130.265947 
L 306.986456 132.245723 
L 309.313362 133.60568 
L 309.449452 134.13394 
L 309.041968 134.969473 
L 306.526267 135.958402 
L 305.586222 141.115886 
L 306.143169 142.05592 
L 307.218517 142.770652 
L 304.364558 146.407112 
L 304.614712 148.593974 
L 302.574146 148.652456 
L 301.9936 149.44149 
L 299.624215 149.699389 
L 299.057828 150.233401 
L 299.356755 151.412158 
L 298.555947 153.799874 
L 299.768172 155.395199 
L 299.85077 157.25801 
L 299.454299 158.999062 
L 297.405867 157.312178 
L 297.009396 158.014447 
L 295.657934 158.595437 
L 295.650855 159.814941 
L 294.925565 160.24541 
L 294.71553 161.028213 
L 293.485212 161.634609 
L 293.054129 162.484043 
L 291.309343 162.987855 
L 291.115827 161.036362 
L 289.817857 159.68743 
L 289.12246 157.804486 
L 286.532814 158.409923 
L 285.322949 159.703728 
L 284.983117 160.75833 
L 284.244454 160.59247 
L 281.638289 161.567977 
L 281.078195 161.114978 
L 280.802868 159.902185 
L 278.966831 159.488973 
L 277.937108 161.638444 
L 276.895586 162.168621 
L 276.318973 159.624154 
L 275.097891 158.452578 
" clip-path="url(#p1bcb05f96b)" style="fill: #1f53dd; stroke: #ffffff; stroke-width: 0.3"/>
    <path d="M 287.956022 138.14156 
L 289.721335 138.060031 
L 289.721335 138.787004 
L 288.584102 141.169484 
L 286.603235 142.615127 
L 284.354783 143.107325 
L 284.245768 142.587195 
L 285.276463 142.252018 
L 285.347075 141.182317 
L 286.17956 140.05298 
L 285.757123 139.485291 
L 284.738816 139.837077 
L 284.652099 138.112119 
L 285.685272 136.31922 
L 288.110874 133.627984 
L 288.792223 133.444542 
L 287.711975 138.474473 
L 287.956022 138.14156 
" clip-path="url(#p1bcb05f96b)" style="fill: #1f53dd; stroke: #ffffff; stroke-width: 0.3"/>
    <path d="M 304.540693 129.327035 
L 305.309391 127.411467 
L 307.967696 124.278634 
L 309.596673 118.750171 
L 311.777931 118.875285 
L 313.331561 119.986452 
L 317.576315 121.337301 
L 318.707516 122.885649 
L 319.522483 123.080271 
L 320.82124 125.420529 
L 320.528606 127.197534 
L 319.545296 127.728191 
L 320.316211 131.035806 
L 318.631211 134.211118 
L 318.272499 136.615611 
L 317.176698 137.977965 
L 315.708026 138.601139 
L 315.577442 143.15702 
L 314.675157 144.25093 
L 312.998022 144.583609 
L 312.158669 143.96427 
L 311.094334 143.854016 
L 310.380844 142.933636 
L 307.218517 142.770652 
L 305.793897 141.677701 
L 305.586222 141.115886 
L 306.651344 135.689478 
L 308.26948 135.506361 
L 309.449452 134.13394 
L 309.075007 133.313747 
L 306.986456 132.245723 
L 306.870819 130.265947 
L 304.540693 129.327035 
" clip-path="url(#p1bcb05f96b)" style="fill: #1f53dc; stroke: #ffffff; stroke-width: 0.3"/>
    <path d="M 309.596673 118.750171 
L 310.144497 116.015661 
L 311.338976 114.812908 
L 312.149837 111.52278 
L 312.313003 107.388854 
L 311.830488 105.588551 
L 310.900137 104.558105 
L 310.213833 104.216133 
L 309.032002 104.897813 
L 307.758499 104.966509 
L 306.975567 103.738279 
L 307.139485 103.221042 
L 306.80905 102.545263 
L 306.853327 102.228578 
L 308.702477 103.05509 
L 309.951941 102.004853 
L 311.076049 100.005274 
L 311.779712 95.746691 
L 310.554282 94.368915 
L 312.344318 93.723023 
L 315.986499 94.038445 
L 317.636887 93.412395 
L 319.444605 94.685587 
L 321.272776 94.693257 
L 324.34857 93.065814 
L 325.725205 93.646804 
L 326.065824 95.493796 
L 325.51045 97.80673 
L 324.431955 98.982612 
L 324.169215 101.101403 
L 324.662443 104.590698 
L 323.332221 105.29872 
L 323.991432 106.334148 
L 323.439205 107.53208 
L 323.797917 108.939015 
L 321.428532 113.608026 
L 322.057064 115.467002 
L 323.528883 117.644276 
L 322.817753 118.784205 
L 323.564282 119.982617 
L 322.971149 121.781193 
L 321.183098 122.938859 
L 319.692399 123.228874 
L 318.707516 122.885649 
L 317.82175 121.555892 
L 316.628404 120.814315 
L 314.617731 120.514712 
L 311.777931 118.875285 
L 309.596673 118.750171 
" clip-path="url(#p1bcb05f96b)" style="fill: #1d4acc; stroke: #ffffff; stroke-width: 0.3"/>
    <path d="M 310.554282 94.368915 
L 310.539428 92.229695 
L 310.118801 91.458135 
L 309.230213 91.38426 
L 309.28472 91.038513 
L 312.11026 88.089054 
L 313.272982 88.515847 
L 315.338815 87.57199 
L 315.926014 86.122572 
L 316.310842 83.271421 
L 317.036546 84.03932 
L 317.037065 83.378721 
L 317.61802 83.303827 
L 316.3867 83.016479 
L 315.979605 81.716122 
L 315.187019 81.491939 
L 316.288183 81.001803 
L 316.620796 78.850608 
L 318.446972 80.36902 
L 319.761435 79.583216 
L 321.041726 80.176623 
L 321.172401 83.010854 
L 321.655539 85.717943 
L 322.113689 86.502405 
L 323.576605 86.766051 
L 324.38104 85.935501 
L 324.666745 84.803726 
L 324.205244 84.653097 
L 324.938287 83.580643 
L 325.852061 83.952252 
L 326.349836 84.526994 
L 326.253377 84.935396 
L 328.555075 86.138273 
L 329.452902 85.427795 
L 330.079333 84.013565 
L 330.383268 81.79803 
L 330.863021 80.898834 
L 329.767439 78.869375 
L 329.087314 78.614323 
L 328.868073 79.396845 
L 327.517003 80.38422 
L 326.291375 80.135436 
L 323.809534 81.397306 
L 323.067754 81.090133 
L 323.636346 77.66672 
L 324.150921 76.021519 
L 325.126702 74.856371 
L 325.218653 73.789159 
L 328.273179 75.17465 
L 329.601306 76.597937 
L 330.835828 77.227924 
L 332.450413 76.867929 
L 333.694171 75.876795 
L 332.582178 80.793432 
L 332.573728 85.006317 
L 333.074465 88.86822 
L 334.116962 91.900552 
L 334.739026 92.47436 
L 335.394287 92.272486 
L 336.999331 93.965836 
L 335.580335 94.780501 
L 335.05328 95.669243 
L 333.549209 95.516805 
L 332.06559 96.023973 
L 331.238036 95.73971 
L 326.65581 98.412647 
L 325.51045 97.80673 
L 326.084703 95.27185 
L 325.668566 94.301616 
L 325.824323 93.804994 
L 324.636484 93.119982 
L 321.272776 94.693257 
L 319.444605 94.685587 
L 317.636887 93.412395 
L 315.986499 94.038445 
L 312.344318 93.723023 
L 310.554282 94.368915 
" clip-path="url(#p1bcb05f96b)" style="fill: #4288f7; stroke: #ffffff; stroke-width: 0.3"/>
    <path d="M 336.999331 93.965836 
L 339.449895 98.144433 
L 339.013831 98.92727 
L 339.986302 99.748606 
L 339.532895 100.19702 
L 339.457328 101.027415 
L 341.08761 102.396813 
L 341.268477 103.192482 
L 340.976116 103.733749 
L 341.989468 106.920203 
L 341.253611 109.538213 
L 342.40571 109.030917 
L 342.323948 110.047774 
L 342.926013 110.67812 
L 342.086096 111.818781 
L 341.13964 112.337401 
L 341.79869 112.625019 
L 342.409427 111.910124 
L 342.745146 112.234733 
L 342.435442 113.01908 
L 340.922847 113.741524 
L 341.309358 113.918171 
L 340.413694 114.754606 
L 341.565793 114.374134 
L 341.606674 114.816508 
L 340.559874 115.415148 
L 340.829936 115.779767 
L 340.319544 115.779767 
L 340.319544 116.274985 
L 341.049206 116.253092 
L 340.790294 116.94836 
L 340.008601 117.034419 
L 340.733308 117.414891 
L 340.573501 117.731951 
L 339.477149 118.05958 
L 340.536337 119.072662 
L 339.072056 119.199486 
L 339.90454 119.718106 
L 339.164967 119.833606 
L 339.532895 120.478295 
L 337.710597 120.212569 
L 338.022778 121.110905 
L 337.492565 121.364554 
L 337.804747 121.618202 
L 337.549551 121.87185 
L 336.879351 121.23773 
L 337.191533 120.972758 
L 336.543632 120.944826 
L 336.380008 121.48858 
L 334.235953 121.131175 
L 333.380866 124.421533 
L 332.823919 124.866384 
L 331.514936 124.354422 
L 330.109983 125.446415 
L 328.664123 124.619032 
L 328.344744 124.014074 
L 328.594898 123.415347 
L 326.521293 123.201071 
L 322.971149 121.781193 
L 323.564282 119.982617 
L 322.817753 118.784205 
L 323.528883 117.644276 
L 322.057064 115.467002 
L 321.428532 113.608026 
L 323.797917 108.939015 
L 323.439205 107.53208 
L 323.991432 106.334148 
L 323.332221 105.29872 
L 324.662443 104.590698 
L 324.164495 101.334375 
L 324.431955 98.982612 
L 325.51045 97.80673 
L 326.837526 98.379571 
L 331.238036 95.73971 
L 332.06559 96.023973 
L 333.549209 95.516805 
L 335.05328 95.669243 
L 335.580335 94.780501 
L 336.999331 93.965836 
" clip-path="url(#p1bcb05f96b)" style="fill: #1d4bcf; stroke: #ffffff; stroke-width: 0.3"/>
    <path d="M 336.380008 121.48858 
L 336.886784 123.632288 
L 336.3256 122.906069 
L 335.592221 123.070639 
L 335.569922 124.239231 
L 334.573914 125.187392 
L 335.255263 126.385426 
L 333.681967 127.168263 
L 334.779558 127.712549 
L 333.742669 128.872083 
L 334.467376 129.516017 
L 334.687885 129.252555 
L 334.969097 129.816469 
L 334.896006 130.507207 
L 334.469854 130.012744 
L 334.365793 131.152651 
L 333.794699 131.469711 
L 334.05485 132.164978 
L 334.524362 131.973987 
L 334.991395 132.292557 
L 334.262971 132.54545 
L 334.896006 133.823504 
L 334.6309 134.469703 
L 333.686922 133.886916 
L 333.742669 133.444542 
L 333.110872 133.06407 
L 333.149276 132.380126 
L 331.704816 131.850183 
L 329.714038 132.280479 
L 329.216034 133.449071 
L 328.639985 132.54545 
L 327.842187 132.74248 
L 327.373914 133.69668 
L 327.85953 133.966936 
L 326.449758 135.597531 
L 325.503302 138.522032 
L 325.61596 141.482626 
L 324.424089 141.738101 
L 324.343851 143.171401 
L 323.268502 143.698223 
L 321.985479 143.175716 
L 321.329414 141.61059 
L 318.990709 141.387206 
L 318.157649 140.495588 
L 315.513724 140.10155 
L 315.708026 138.601139 
L 317.176698 137.977965 
L 318.272499 136.615611 
L 318.631211 134.211118 
L 320.316211 131.035806 
L 319.545296 127.728191 
L 320.528606 127.197534 
L 320.82124 125.420529 
L 319.522483 123.080271 
L 320.202934 123.260033 
L 322.971149 121.781193 
L 323.833316 121.876587 
L 326.521293 123.201071 
L 328.594898 123.415347 
L 328.344744 124.014074 
L 328.664123 124.619032 
L 330.109983 125.446415 
L 331.514936 124.354422 
L 332.823919 124.866384 
L 333.380866 124.421533 
L 334.235953 121.131175 
L 336.380008 121.48858 
" clip-path="url(#p1bcb05f96b)" style="fill: #397ff5; stroke: #ffffff; stroke-width: 0.3"/>
    <path d="M 325.61596 141.482626 
L 326.971299 144.503899 
L 326.752029 145.396197 
L 327.061733 145.966905 
L 327.269854 150.993817 
L 326.02856 158.617601 
L 323.654988 160.106274 
L 323.547113 160.83879 
L 320.087297 159.362421 
L 320.006272 160.529194 
L 318.258339 161.801907 
L 315.022855 159.38543 
L 314.930817 157.990959 
L 314.093823 156.897528 
L 312.903625 156.027481 
L 310.144849 155.327129 
L 302.975337 158.80444 
L 301.661634 159.80823 
L 299.496778 159.298665 
L 299.768172 155.395199 
L 298.555947 153.799874 
L 299.356755 151.412158 
L 299.057828 150.233401 
L 299.624215 149.699389 
L 301.9936 149.44149 
L 302.574146 148.652456 
L 304.614712 148.593974 
L 304.364558 146.407112 
L 307.218517 142.770652 
L 310.380844 142.933636 
L 311.26661 143.955162 
L 313.197044 144.584568 
L 314.800234 144.200118 
L 315.509004 143.509833 
L 315.513724 140.10155 
L 318.157649 140.495588 
L 318.990709 141.387206 
L 321.329414 141.61059 
L 321.985479 143.175716 
L 323.041948 143.701579 
L 324.343851 143.171401 
L 324.572765 141.608193 
L 325.61596 141.482626 
" clip-path="url(#p1bcb05f96b)" style="fill: #2563eb; stroke: #ffffff; stroke-width: 0.3"/>
    <path d="M 323.547113 160.83879 
L 320.902339 167.154066 
L 320.920921 169.797743 
L 319.997533 171.291168 
L 320.214796 173.55717 
L 321.244669 176.296187 
L 324.458701 181.507149 
L 323.572935 181.296708 
L 321.955586 179.647693 
L 319.80489 178.610828 
L 317.38988 178.678898 
L 316.280706 179.313576 
L 313.348868 179.244068 
L 310.948017 178.140092 
L 308.448835 175.099961 
L 307.353034 174.968136 
L 306.623025 174.215054 
L 306.139236 172.774563 
L 308.091697 172.19597 
L 308.98061 170.978384 
L 309.809737 170.804854 
L 310.702583 169.825033 
L 313.80355 169.260821 
L 314.167768 168.84617 
L 314.993749 166.954118 
L 314.775061 163.979661 
L 315.471245 163.21076 
L 315.022855 159.38543 
L 318.258339 161.801907 
L 320.006272 160.529194 
L 320.087297 159.362421 
L 323.547113 160.83879 
" clip-path="url(#p1bcb05f96b)" style="fill: #78b4fb; stroke: #ffffff; stroke-width: 0.3"/>
    <path d="M 324.493667 181.45272 
L 324.797177 181.72826 
L 324.511899 182.335586 
L 324.019247 181.849909 
L 321.473348 182.319928 
L 318.769987 184.595285 
L 317.852858 185.993157 
L 317.285041 188.027366 
L 317.69876 189.507556 
L 317.411034 191.448583 
L 316.722059 191.746829 
L 316.300065 192.676716 
L 315.891412 192.37533 
L 315.023913 193.010005 
L 313.459369 192.820475 
L 312.944883 193.690478 
L 311.272872 194.715492 
L 310.289923 196.814628 
L 309.02194 196.951449 
L 308.530729 196.143343 
L 307.711184 195.906907 
L 307.647003 195.544668 
L 309.430901 195.108195 
L 308.910598 194.59033 
L 309.121197 194.019622 
L 308.65469 192.170811 
L 309.375515 190.528122 
L 309.116845 189.649692 
L 308.076675 189.195024 
L 308.7336 189.002758 
L 309.04747 188.116297 
L 309.777641 188.339325 
L 309.889953 187.246195 
L 311.499561 186.312581 
L 312.963811 184.574943 
L 311.160935 182.690799 
L 310.200658 182.812838 
L 310.490609 183.279901 
L 309.844997 183.697663 
L 309.343794 183.369397 
L 309.674433 182.150935 
L 309.339321 180.659632 
L 309.459678 178.966996 
L 307.648027 175.067364 
L 308.448835 175.099961 
L 310.948017 178.140092 
L 313.348868 179.244068 
L 316.280706 179.313576 
L 317.38988 178.678898 
L 319.80489 178.610828 
L 321.955586 179.647693 
L 323.572935 181.296708 
L 324.493667 181.45272 
" clip-path="url(#p1bcb05f96b)" style="fill: #1d4fd9; stroke: #ffffff; stroke-width: 0.3"/>
    <path d="M 309.343794 183.369397 
L 308.933306 183.694402 
L 308.46975 183.255764 
L 308.200638 183.904159 
L 307.83721 182.971577 
L 308.351488 185.077297 
L 308.162196 185.605682 
L 304.39917 183.730442 
L 303.10592 184.014226 
L 303.643988 184.728958 
L 303.238077 186.008383 
L 302.262633 184.774977 
L 300.242521 184.295613 
L 296.732496 182.176821 
L 295.012883 179.59736 
L 296.395024 178.819831 
L 302.451429 181.144749 
L 303.911448 180.668261 
L 304.340958 181.152419 
L 305.376187 181.013883 
L 307.723546 180.341334 
L 309.339321 180.659632 
L 309.674433 182.150935 
L 309.343794 183.369397 
" clip-path="url(#p1bcb05f96b)" style="fill: #4f95f8; stroke: #ffffff; stroke-width: 0.3"/>
    <path d="M 332.078938 384.524407 
L 332.196626 384.74484 
L 331.04081 385.686961 
L 331.191946 384.593859 
L 332.078938 384.524407 
" clip-path="url(#p1bcb05f96b)" style="fill: #4f95f8; stroke: #ffffff; stroke-width: 0.3"/>
    <path d="M 344.796625 350.082625 
L 344.598415 350.588412 
L 344.28995 350.343068 
L 343.550376 348.689071 
L 344.380383 349.057465 
L 344.224292 349.468888 
L 344.796625 350.082625 
" clip-path="url(#p1bcb05f96b)" style="fill: #4f95f8; stroke: #ffffff; stroke-width: 0.3"/>
    <path d="M 344.796625 341.814152 
L 345.406123 341.766593 
L 345.427183 342.587929 
L 344.878387 342.568302 
L 344.598415 342.0678 
L 345.118718 342.332772 
L 344.796625 341.814152 
" clip-path="url(#p1bcb05f96b)" style="fill: #4f95f8; stroke: #ffffff; stroke-width: 0.3"/>
    <path d="M 308.229249 229.690389 
L 309.544872 230.575893 
L 308.910598 231.462906 
L 308.177219 231.11716 
L 307.448795 229.72889 
L 307.874948 229.420133 
L 308.229249 229.690389 
" clip-path="url(#p1bcb05f96b)" style="fill: #4f95f8; stroke: #ffffff; stroke-width: 0.3"/>
    <path d="M 303.602271 212.520832 
L 304.156021 211.563613 
L 304.941431 211.978055 
L 304.3245 212.951883 
L 303.602271 212.520832 
" clip-path="url(#p1bcb05f96b)" style="fill: #4f95f8; stroke: #ffffff; stroke-width: 0.3"/>
    <path d="M 300.303303 206.301925 
L 300.769098 205.895032 
L 300.2649 207.661509 
L 300.049346 207.315008 
L 300.303303 206.301925 
" clip-path="url(#p1bcb05f96b)" style="fill: #4f95f8; stroke: #ffffff; stroke-width: 0.3"/>
    <path d="M 302.554232 199.162035 
L 303.038609 199.608183 
L 303.095595 201.052316 
L 301.533893 200.289946 
L 301.614111 198.857767 
L 302.554232 199.162035 
" clip-path="url(#p1bcb05f96b)" style="fill: #4f95f8; stroke: #ffffff; stroke-width: 0.3"/>
    <path d="M 324.653474 339.467152 
L 324.622504 339.175759 
L 324.717893 339.096494 
L 324.778595 339.200671 
L 324.653474 339.467152 
" clip-path="url(#p1bcb05f96b)" style="fill: #4f95f8; stroke: #ffffff; stroke-width: 0.3"/>
    <path d="M 333.528353 395.047782 
L 333.787266 394.976066 
L 333.798415 395.107419 
L 333.683205 395.238773 
L 333.528353 395.047782 
" clip-path="url(#p1bcb05f96b)" style="fill: #4f95f8; stroke: #ffffff; stroke-width: 0.3"/>
    <path d="M 524.115269 393.799169 
L 524.24039 393.694237 
L 524.307286 393.773502 
L 524.277554 393.924483 
L 524.115269 393.799169 
" clip-path="url(#p1bcb05f96b)" style="fill: #4f95f8; stroke: #ffffff; stroke-width: 0.3"/>
    <path d="M 331.008601 372.871695 
L 330.814107 372.698067 
L 330.815346 372.251918 
L 331.162214 372.359869 
L 331.008601 372.871695 
" clip-path="url(#p1bcb05f96b)" style="fill: #4f95f8; stroke: #ffffff; stroke-width: 0.3"/>
    <path d="M 344.735923 340.816922 
L 344.660356 340.578372 
L 344.761939 340.080135 
L 344.962627 340.289999 
L 344.735923 340.816922 
" clip-path="url(#p1bcb05f96b)" style="fill: #4f95f8; stroke: #ffffff; stroke-width: 0.3"/>
    <path d="M 344.828835 332.401242 
L 344.587265 332.152879 
L 344.643012 332.02379 
L 344.79167 332.084182 
L 344.828835 332.401242 
" clip-path="url(#p1bcb05f96b)" style="fill: #4f95f8; stroke: #ffffff; stroke-width: 0.3"/>
    <path d="M 343.082104 330.215038 
L 343.052372 330.024047 
L 343.108119 329.974978 
L 343.151478 330.045939 
L 343.082104 330.215038 
" clip-path="url(#p1bcb05f96b)" style="fill: #4f95f8; stroke: #ffffff; stroke-width: 0.3"/>
    <path d="M 316.093254 278.746376 
L 316.238196 278.746376 
L 316.371988 278.857347 
L 316.075911 279.07174 
L 316.093254 278.746376 
" clip-path="url(#p1bcb05f96b)" style="fill: #4f95f8; stroke: #ffffff; stroke-width: 0.3"/>
    <path d="M 312.072057 261.085375 
L 312.086923 261.04914 
L 312.105505 261.0816 
L 312.072057 261.085375 
" clip-path="url(#p1bcb05f96b)" style="fill: #4f95f8; stroke: #ffffff; stroke-width: 0.3"/>
    <path d="M 312.038609 261.065747 
L 312.039848 261.022718 
L 312.067102 261.058198 
L 312.038609 261.065747 
" clip-path="url(#p1bcb05f96b)" style="fill: #4f95f8; stroke: #ffffff; stroke-width: 0.3"/>
    <path d="M 307.701513 242.362223 
L 307.712663 242.027046 
L 307.96662 242.572087 
L 307.701513 242.362223 
" clip-path="url(#p1bcb05f96b)" style="fill: #4f95f8; stroke: #ffffff; stroke-width: 0.3"/>
    <path d="M 300.740605 220.140087 
L 300.696008 220.12197 
L 300.740605 220.128764 
L 300.740605 220.140087 
" clip-path="url(#p1bcb05f96b)" style="fill: #4f95f8; stroke: #ffffff; stroke-width: 0.3"/>
    <path d="M 305.668616 215.771453 
L 305.669855 216.305925 
L 305.03682 216.198729 
L 305.206538 215.581216 
L 305.668616 215.771453 
" clip-path="url(#p1bcb05f96b)" style="fill: #4f95f8; stroke: #ffffff; stroke-width: 0.3"/>
    <path d="M 524.012448 393.447383 
L 523.817954 393.747081 
L 523.623459 393.395295 
L 523.82167 393.31452 
L 524.012448 393.447383 
" clip-path="url(#p1bcb05f96b)" style="fill: #4f95f8; stroke: #ffffff; stroke-width: 0.3"/>
    <path d="M 343.456226 330.027821 
L 343.555332 330.049714 
L 343.487197 330.218812 
L 343.456226 330.027821 
" clip-path="url(#p1bcb05f96b)" style="fill: #4f95f8; stroke: #ffffff; stroke-width: 0.3"/>
    <path d="M 308.162196 185.605682 
L 307.057881 186.473921 
L 305.965281 186.668158 
L 306.651747 187.077903 
L 306.643564 187.661813 
L 305.866183 187.644555 
L 306.192655 188.101142 
L 306.057473 189.569232 
L 307.535512 190.476854 
L 307.270203 191.253922 
L 306.332973 191.498646 
L 306.61631 192.490185 
L 306.300412 192.594362 
L 305.569237 192.609786 
L 305.348628 191.3513 
L 305.686055 191.169823 
L 304.471581 189.383664 
L 302.502966 189.181036 
L 298.981712 190.211591 
L 298.409642 190.731799 
L 298.593737 192.564166 
L 298.026233 192.3082 
L 297.625274 192.916424 
L 296.625512 192.580951 
L 295.709853 190.82408 
L 296.192069 189.705243 
L 295.983607 188.02459 
L 294.670691 188.028425 
L 295.171786 186.987245 
L 297.573423 185.559697 
L 298.041479 182.9625 
L 300.242521 184.295613 
L 302.262633 184.774977 
L 303.238077 186.008383 
L 303.643988 184.728958 
L 303.10592 184.014226 
L 304.215881 183.704077 
L 308.162196 185.605682 
" clip-path="url(#p1bcb05f96b)" style="fill: #559af9; stroke: #ffffff; stroke-width: 0.3"/>
    <path d="M 297.625274 192.916424 
L 297.342792 194.109284 
L 297.800894 194.179662 
L 297.505279 195.145849 
L 298.358362 196.166572 
L 298.332346 197.497469 
L 297.695939 197.765209 
L 296.168899 200.044112 
L 296.091328 201.592074 
L 295.287013 201.383182 
L 293.680592 202.593077 
L 292.330282 200.819806 
L 292.290834 200.125603 
L 292.75148 199.710096 
L 292.353637 198.561302 
L 292.440587 197.332047 
L 292.988093 196.824849 
L 292.563201 195.468716 
L 292.931532 194.605352 
L 294.78066 194.526918 
L 293.193996 192.834131 
L 291.562957 192.517506 
L 289.399777 193.313527 
L 288.544281 194.491611 
L 288.683218 195.261491 
L 289.057806 194.78188 
L 288.794084 195.46361 
L 286.344157 196.874769 
L 285.962767 197.780559 
L 286.153544 198.315031 
L 284.253132 200.433747 
L 283.912526 201.746829 
L 284.516491 202.617268 
L 280.471782 201.282382 
L 277.801446 201.786084 
L 276.147375 201.204198 
L 272.865342 201.200215 
L 273.177886 198.625259 
L 275.150014 197.335769 
L 276.167936 195.049199 
L 277.467479 193.590013 
L 278.005547 191.487041 
L 282.838714 188.215377 
L 282.631039 187.237473 
L 283.077068 186.560611 
L 283.034589 184.946111 
L 283.951035 183.447617 
L 284.638565 185.48971 
L 284.555967 189.461725 
L 286.185902 189.677439 
L 286.672838 191.314949 
L 287.343062 192.032558 
L 288.15567 192.096313 
L 288.685084 191.491355 
L 288.930518 188.020755 
L 289.436333 187.350604 
L 291.578376 188.588323 
L 295.983607 188.02459 
L 296.192069 189.705243 
L 295.740532 190.462159 
L 295.785371 191.293378 
L 296.482342 192.476929 
L 297.625274 192.916424 
" clip-path="url(#p1bcb05f96b)" style="fill: #88befc; stroke: #ffffff; stroke-width: 0.3"/>
    <path d="M 272.865342 201.200215 
L 265.98766 202.910473 
L 266.85131 201.3184 
L 267.430077 202.045016 
L 270.039288 200.08318 
L 270.361968 200.857746 
L 270.450323 200.185484 
L 270.930796 200.169182 
L 270.497258 199.981212 
L 270.637372 199.300182 
L 270.004337 198.656248 
L 268.702408 198.676523 
L 268.34326 199.476763 
L 268.352874 199.102284 
L 266.020427 199.116398 
L 265.106821 198.206152 
L 265.420717 196.50175 
L 264.457315 199.25237 
L 265.308752 200.7282 
L 263.550104 199.922979 
L 263.350969 199.380062 
L 263.676392 198.128724 
L 263.120191 197.471669 
L 263.055327 195.933405 
L 264.003162 193.441055 
L 263.44198 194.3636 
L 263.156611 193.633335 
L 263.296795 194.492537 
L 262.690007 194.194959 
L 262.666166 194.649314 
L 261.964419 194.610713 
L 260.771656 192.520551 
L 260.872347 190.71047 
L 262.104238 188.648723 
L 265.02585 187.968984 
L 265.942295 188.520253 
L 266.820982 189.809744 
L 268.30932 190.602613 
L 270.205929 190.128042 
L 272.167043 191.088689 
L 274.082532 190.080106 
L 273.943295 190.69561 
L 274.497882 191.604965 
L 275.825744 191.218117 
L 278.005547 191.487041 
L 277.467479 193.590013 
L 276.167936 195.049199 
L 275.150014 197.335769 
L 273.177886 198.625259 
L 272.865342 201.200215 
" clip-path="url(#p1bcb05f96b)" style="fill: #3073f1; stroke: #ffffff; stroke-width: 0.3"/>
    <path d="M 262.668596 197.388941 
L 263.055906 197.655415 
L 262.926508 198.065803 
L 262.815812 198.079173 
L 262.668596 197.388941 
" clip-path="url(#p1bcb05f96b)" style="fill: #3073f1; stroke: #ffffff; stroke-width: 0.3"/>
    <path d="M 261.964419 194.610713 
L 260.554647 195.393549 
L 260.252108 197.154287 
L 258.663236 199.44281 
L 258.428838 201.016836 
L 258.90826 202.479842 
L 260.155748 202.681401 
L 264.464351 205.596844 
L 264.4755 206.669564 
L 263.843704 206.796388 
L 264.371439 207.06136 
L 263.966346 207.557332 
L 264.154647 208.696484 
L 263.237923 209.076956 
L 262.609843 208.952396 
L 262.293945 208.581738 
L 263.332073 208.834631 
L 263.405163 207.942334 
L 262.81177 207.937049 
L 262.81177 208.317521 
L 262.293945 207.937049 
L 261.216174 208.17258 
L 261.532073 207.502224 
L 261.279354 207.446361 
L 260.413422 207.820794 
L 260.673573 208.121246 
L 259.77667 208.739513 
L 258.480868 208.581738 
L 258.356987 209.384957 
L 257.700414 209.215103 
L 255.645218 210.234225 
L 255.071646 210.78606 
L 255.215349 211.978055 
L 254.835032 212.14036 
L 254.36676 211.633819 
L 253.846457 212.254351 
L 254.779286 213.32707 
L 254.678941 214.178603 
L 254.054578 213.775484 
L 253.638336 214.178603 
L 253.998831 214.791586 
L 252.114551 215.662996 
L 250.424774 219.469081 
L 249.771167 219.141106 
L 248.437011 217.598511 
L 248.201017 216.651287 
L 249.873431 215.170529 
L 250.787516 213.558426 
L 252.008394 213.432353 
L 251.825892 212.721455 
L 252.326987 209.174637 
L 251.604057 206.342071 
L 253.222193 205.510853 
L 253.735087 204.624508 
L 252.858761 203.744394 
L 251.431781 203.206068 
L 251.101389 201.827415 
L 251.621363 201.472206 
L 250.567255 199.294452 
L 251.76768 198.789202 
L 252.237309 198.191914 
L 252.234949 197.488207 
L 254.181117 197.635371 
L 256.328667 196.461408 
L 257.266352 192.649979 
L 256.590621 191.337 
L 258.562748 190.839419 
L 259.420195 191.860466 
L 260.771656 192.520551 
L 261.964419 194.610713 
" clip-path="url(#p1bcb05f96b)" style="fill: #377cf4; stroke: #ffffff; stroke-width: 0.3"/>
    <path d="M 264.098129 204.4335 
L 264.356671 204.3283 
L 263.964716 204.829152 
L 263.803275 204.536518 
L 264.098129 204.4335 
" clip-path="url(#p1bcb05f96b)" style="fill: #377cf4; stroke: #ffffff; stroke-width: 0.3"/>
    <path d="M 264.070885 203.793273 
L 264.373413 203.627997 
L 263.445978 204.093154 
L 263.701553 203.976467 
L 264.070885 203.793273 
" clip-path="url(#p1bcb05f96b)" style="fill: #377cf4; stroke: #ffffff; stroke-width: 0.3"/>
    <path d="M 250.424774 219.469081 
L 249.562067 220.745251 
L 249.909208 221.19765 
L 249.699141 221.481101 
L 247.615363 222.83122 
L 247.216311 223.427609 
L 247.312118 224.018117 
L 246.866967 224.161466 
L 246.951455 223.267051 
L 242.069031 221.9813 
L 240.285864 219.748609 
L 240.517999 219.327366 
L 241.422369 219.193437 
L 241.258846 218.962436 
L 240.0485 217.998439 
L 238.838007 217.692893 
L 237.104169 215.634661 
L 236.193494 215.874097 
L 236.356382 214.934712 
L 236.838366 214.493701 
L 236.450416 214.066057 
L 237.757951 213.185148 
L 237.627875 212.747303 
L 236.735928 212.394008 
L 237.25623 211.633819 
L 237.167432 211.104827 
L 238.189059 210.872875 
L 237.118561 209.154935 
L 236.226742 208.689772 
L 236.382865 208.346208 
L 238.166516 208.559389 
L 245.144102 206.751448 
L 245.387176 208.362114 
L 246.081786 209.698582 
L 245.040264 210.059064 
L 243.563725 212.450614 
L 244.529729 214.071346 
L 244.47545 215.965795 
L 244.860908 216.320525 
L 245.682169 215.876633 
L 247.738468 216.019005 
L 248.437011 217.598511 
L 250.424774 219.469081 
" clip-path="url(#p1bcb05f96b)" style="fill: #2867ec; stroke: #ffffff; stroke-width: 0.3"/>
    <path d="M 236.595549 208.097815 
L 239.203065 206.658643 
L 241.513239 203.611941 
L 241.441189 201.423905 
L 242.124945 200.119918 
L 241.992788 196.88229 
L 240.880468 195.959992 
L 240.828549 195.143155 
L 242.056507 195.398177 
L 243.490567 196.769639 
L 244.041221 196.013681 
L 245.137022 196.966178 
L 246.178544 199.078738 
L 244.76651 203.381036 
L 245.557879 205.037241 
L 245.427295 206.577918 
L 238.166516 208.559389 
L 236.595549 208.097815 
" clip-path="url(#p1bcb05f96b)" style="fill: #1d4acb; stroke: #ffffff; stroke-width: 0.3"/>
    <path d="M 238.420855 205.661701 
L 238.965699 205.213551 
L 239.210528 205.56361 
L 238.713693 205.924898 
L 238.420855 205.661701 
" clip-path="url(#p1bcb05f96b)" style="fill: #1d4acb; stroke: #ffffff; stroke-width: 0.3"/>
    <path d="M 224.71234 200.492634 
L 223.252652 200.141901 
L 224.319273 200.694492 
L 222.43875 201.832888 
L 222.959053 201.832888 
L 222.327257 202.572695 
L 221.348592 202.859559 
L 219.98961 202.355282 
L 219.11129 202.753872 
L 219.200484 203.349492 
L 220.086238 202.619499 
L 220.777497 202.859559 
L 219.105096 205.276764 
L 217.362081 205.07445 
L 217.432694 205.530412 
L 216.945839 205.430765 
L 215.864352 203.860563 
L 212.007918 205.782551 
L 212.805715 204.686429 
L 211.596302 204.879122 
L 211.656484 204.045915 
L 210.912315 202.643294 
L 210.41594 200.516832 
L 210.366381 198.94164 
L 209.572653 197.37987 
L 209.482188 195.144114 
L 208.875682 194.156622 
L 210.605522 193.133658 
L 210.898155 192.190269 
L 212.485611 191.812529 
L 213.864606 189.140551 
L 216.357494 189.743592 
L 217.388004 190.661096 
L 218.995126 189.170272 
L 219.876172 189.06577 
L 220.175885 189.755096 
L 221.804247 190.258429 
L 222.732492 192.097272 
L 224.765978 191.633247 
L 226.097773 190.843254 
L 226.074174 192.485557 
L 224.087887 195.077961 
L 223.984049 198.141101 
L 224.803737 199.35677 
L 224.71234 200.492634 
" clip-path="url(#p1bcb05f96b)" style="fill: #1d4ed7; stroke: #ffffff; stroke-width: 0.3"/>
    <path d="M 211.596302 204.879122 
L 211.232419 204.967253 
L 211.130836 205.773492 
L 210.044394 207.191203 
L 209.141297 207.683401 
L 208.96043 207.355773 
L 209.646734 206.857535 
L 208.786996 206.555573 
L 209.063252 206.194729 
L 208.617278 205.735747 
L 208.348455 206.669564 
L 207.624986 207.315008 
L 208.02884 207.937804 
L 207.677016 208.444345 
L 207.302894 208.190697 
L 206.015764 208.832367 
L 205.952584 207.757382 
L 206.588097 207.122507 
L 206.576947 207.820794 
L 206.879219 207.745303 
L 207.416865 207.06136 
L 206.272199 206.416671 
L 205.751896 207.482597 
L 202.615213 208.317521 
L 202.358778 207.876657 
L 201.232694 208.633072 
L 201.373919 209.283045 
L 199.619756 209.951136 
L 198.969377 209.595575 
L 198.069997 210.079469 
L 198.151759 209.59633 
L 197.296975 208.317521 
L 197.296975 207.557332 
L 197.713218 207.430508 
L 197.508813 207.099105 
L 195.467244 206.864329 
L 193.016865 209.215103 
L 193.289405 210.127028 
L 191.554474 209.033224 
L 190.708827 206.979626 
L 190.258078 204.461044 
L 191.301173 202.933309 
L 191.925772 201.247384 
L 191.818788 200.568604 
L 193.403884 199.12284 
L 194.034776 199.405665 
L 196.085568 198.811253 
L 197.379604 199.001081 
L 199.796188 198.097 
L 199.980264 197.762882 
L 199.41073 197.049588 
L 201.002906 195.797008 
L 202.403927 193.862293 
L 204.760725 193.601518 
L 208.875682 194.156622 
L 209.482188 195.144114 
L 209.572653 197.37987 
L 210.366381 198.94164 
L 210.41594 200.516832 
L 210.912315 202.643294 
L 211.656484 204.045915 
L 211.596302 204.879122 
" clip-path="url(#p1bcb05f96b)" style="fill: #1d4ed7; stroke: #ffffff; stroke-width: 0.3"/>
    <path d="M 198.081146 212.324557 
L 196.561119 212.013536 
L 197.393603 211.202768 
L 197.192915 210.734727 
L 197.534828 210.413137 
L 198.025399 210.482589 
L 198.025399 211.633819 
L 198.423059 211.442828 
L 198.081146 212.324557 
" clip-path="url(#p1bcb05f96b)" style="fill: #1d4ed7; stroke: #ffffff; stroke-width: 0.3"/>
    <path d="M 200.872199 209.994165 
L 201.220306 210.361804 
L 200.894498 210.681884 
L 200.11776 210.125519 
L 200.872199 209.994165 
" clip-path="url(#p1bcb05f96b)" style="fill: #1d4ed7; stroke: #ffffff; stroke-width: 0.3"/>
    <path d="M 203.652102 208.503228 
L 203.585206 209.532163 
L 202.568138 209.656723 
L 202.514869 209.191701 
L 203.652102 208.503228 
" clip-path="url(#p1bcb05f96b)" style="fill: #1d4ed7; stroke: #ffffff; stroke-width: 0.3"/>
    <path d="M 194.78094 208.000461 
L 194.585207 208.737249 
L 193.708125 209.113191 
L 194.178875 208.226933 
L 194.78094 208.000461 
" clip-path="url(#p1bcb05f96b)" style="fill: #1d4ed7; stroke: #ffffff; stroke-width: 0.3"/>
    <path d="M 370.725048 25.188912 
L 371.932894 25.372354 
L 369.465172 24.998676 
L 369.808324 24.859019 
L 370.725048 25.188912 
" clip-path="url(#p1bcb05f96b)" style="fill: #3275f1; stroke: #ffffff; stroke-width: 0.3"/>
    <path d="M 399.205433 39.490586 
L 400.081276 39.744234 
L 397.936885 40.919621 
L 397.100684 40.92868 
L 396.234751 41.907791 
L 395.600477 43.542916 
L 392.128076 43.456856 
L 389.630622 44.29782 
L 389.391531 45.039137 
L 390.084029 45.202197 
L 388.675495 46.04467 
L 387.570471 45.84764 
L 387.942116 46.502143 
L 387.741428 46.870536 
L 385.997174 47.056243 
L 385.118854 46.542908 
L 385.090361 45.931435 
L 384.458565 45.80914 
L 383.498482 47.056243 
L 384.226906 47.885884 
L 383.59511 48.081404 
L 381.420987 47.619402 
L 379.376941 47.842854 
L 377.217684 46.626702 
L 372.940052 48.037619 
L 370.571435 49.566302 
L 365.834202 54.034584 
L 362.390293 59.30684 
L 362.023603 60.966121 
L 362.117753 63.244424 
L 360.755056 66.562986 
L 358.832413 64.70894 
L 356.465035 63.27311 
L 348.857465 60.194608 
L 346.133308 58.428131 
L 344.409126 56.696511 
L 342.808149 56.494849 
L 339.072056 54.104035 
L 336.321884 53.803583 
L 333.14432 54.757028 
L 328.026771 57.959335 
L 326.287473 59.669194 
L 325.592497 59.128682 
L 326.432414 58.923348 
L 325.384376 58.316405 
L 325.131657 57.420333 
L 322.578457 54.761558 
L 319.031726 54.482998 
L 317.758223 55.243942 
L 316.364555 57.198391 
L 315.803371 58.731602 
L 315.851685 60.412021 
L 319.765105 63.270091 
L 322.272469 62.751471 
L 326.241636 66.827958 
L 328.260907 67.60702 
L 329.676874 68.948486 
L 326.72973 70.568512 
L 323.953543 69.482203 
L 322.18823 69.948735 
L 322.480591 68.728053 
L 321.463522 68.43515 
L 320.608739 70.120853 
L 318.304541 71.145259 
L 317.992359 73.932368 
L 315.591534 74.83146 
L 314.591809 76.339005 
L 311.992773 75.569757 
L 311.103303 72.987982 
L 312.674122 68.924329 
L 313.339366 68.67823 
L 313.618099 65.549904 
L 311.830488 63.270091 
L 310.306744 62.651069 
L 309.639022 61.61081 
L 308.340742 60.851375 
L 307.87247 59.458576 
L 308.925464 57.363715 
L 308.864762 54.304085 
L 309.537439 52.920344 
L 311.986579 52.500617 
L 314.460494 50.121157 
L 315.695594 51.178779 
L 317.151203 48.646073 
L 319.343908 46.744467 
L 318.82856 45.141049 
L 316.556571 42.769893 
L 316.424018 42.024047 
L 316.892291 40.642571 
L 318.015897 40.582178 
L 318.826083 39.766881 
L 323.529868 43.048453 
L 326.804059 42.427166 
L 326.967583 43.428925 
L 329.207362 44.06229 
L 331.260081 43.015992 
L 333.077424 40.778454 
L 333.326426 39.110114 
L 332.111148 36.961654 
L 332.590569 35.931964 
L 331.769234 33.450592 
L 332.493942 31.99438 
L 334.673019 31.068867 
L 336.385063 29.274458 
L 336.834754 26.886693 
L 336.610528 22.985345 
L 338.007913 20.252589 
L 338.751202 16.216867 
L 338.10454 11.695742 
L 335.560012 6.520869 
L 335.519131 4.910656 
L 336.515139 3.243826 
L 336.496557 1.459231 
L 336.942531 1.327123 
L 337.169234 2.10694 
L 339.164967 1.730997 
L 339.957809 1.255407 
L 340.008601 0.590336 
L 340.629248 0 
L 341.253611 0.104177 
L 342.717892 2.111469 
L 345.222778 4.011565 
L 350.065311 9.227958 
L 351.456501 11.727448 
L 356.795799 17.242028 
L 362.427457 21.053543 
L 363.247554 22.23346 
L 368.900272 24.61141 
L 367.435991 24.739744 
L 368.164415 26.017798 
L 371.353128 26.334103 
L 372.288434 25.637326 
L 374.116927 25.728669 
L 374.914725 26.155946 
L 374.230898 26.636065 
L 373.906328 27.537422 
L 374.627319 27.754834 
L 375.575014 26.054788 
L 375.998689 25.911356 
L 376.537574 27.440794 
L 378.076184 28.930221 
L 383.572811 29.707018 
L 384.954091 29.195193 
L 388.26173 25.857003 
L 390.593182 24.304919 
L 392.721469 21.712575 
L 393.183547 23.507739 
L 391.94597 25.256854 
L 391.487608 26.83536 
L 389.719817 28.995898 
L 388.611077 32.304646 
L 389.288709 33.932976 
L 390.849617 35.735689 
L 392.268062 39.871058 
L 393.514311 41.01021 
L 391.633788 40.249265 
L 391.455399 40.60709 
L 392.320092 41.055504 
L 392.419198 41.549967 
L 395.394834 42.427166 
L 395.082652 41.655653 
L 396.387126 40.446296 
L 397.594972 39.628734 
L 399.205433 39.490586 
" clip-path="url(#p1bcb05f96b)" style="fill: #3275f1; stroke: #ffffff; stroke-width: 0.3"/>
    <path d="M 304.537577 60.713228 
L 304.776668 60.928376 
L 304.113902 61.990527 
L 303.935512 63.35766 
L 302.971713 64.210702 
L 302.4415 62.370999 
L 302.63971 61.673467 
L 304.537577 60.713228 
" clip-path="url(#p1bcb05f96b)" style="fill: #3275f1; stroke: #ffffff; stroke-width: 0.3"/>
    <path d="M 392.265584 35.667747 
L 393.046039 36.381133 
L 391.839432 37.067341 
L 391.737849 36.691399 
L 392.577766 36.185612 
L 390.604332 35.287275 
L 392.265584 35.667747 
" clip-path="url(#p1bcb05f96b)" style="fill: #3275f1; stroke: #ffffff; stroke-width: 0.3"/>
    <path d="M 379.124222 29.195193 
L 379.228283 29.195193 
L 379.135371 29.198212 
L 379.124222 29.195193 
" clip-path="url(#p1bcb05f96b)" style="fill: #3275f1; stroke: #ffffff; stroke-width: 0.3"/>
    <path d="M 331.613143 6.372907 
L 331.352992 7.259166 
L 330.457328 7.730226 
L 328.917479 6.840948 
L 328.639985 5.669336 
L 329.717755 4.949157 
L 331.613143 6.372907 
" clip-path="url(#p1bcb05f96b)" style="fill: #3275f1; stroke: #ffffff; stroke-width: 0.3"/>
    <path d="M 327.435855 1.213887 
L 327.752992 1.690987 
L 327.175704 4.656254 
L 326.615759 3.076992 
L 326.647968 1.794409 
L 326.127665 0.972318 
L 326.733447 1.399594 
L 327.435855 1.213887 
" clip-path="url(#p1bcb05f96b)" style="fill: #3275f1; stroke: #ffffff; stroke-width: 0.3"/>
    <path d="M 301.864211 74.093163 
L 301.885271 74.423811 
L 301.376118 74.550635 
L 301.368685 74.062211 
L 301.864211 74.093163 
" clip-path="url(#p1bcb05f96b)" style="fill: #3275f1; stroke: #ffffff; stroke-width: 0.3"/>
    <path d="M 65.02857 391.905868 
L 66.850869 392.355791 
L 65.916802 394.382711 
L 62.798701 393.670835 
L 63.035315 393.172598 
L 63.927263 393.242049 
L 64.345983 391.41216 
L 65.02857 391.905868 
" clip-path="url(#p1bcb05f96b)" style="fill: #73b1fb; stroke: #ffffff; stroke-width: 0.3"/>
    <path d="M 52.666424 390.374165 
L 52.904276 390.652725 
L 52.602005 391.019609 
L 51.692714 390.93204 
L 51.950388 390.396058 
L 52.666424 390.374165 
" clip-path="url(#p1bcb05f96b)" style="fill: #73b1fb; stroke: #ffffff; stroke-width: 0.3"/>
    <path d="M 72.859128 388.347246 
L 72.01921 390.121272 
L 71.531117 392.425997 
L 71.075232 392.919705 
L 69.985074 392.829116 
L 69.710057 392.484125 
L 70.027194 392.032692 
L 69.042335 391.094345 
L 69.815356 390.465509 
L 70.231598 390.980354 
L 71.075232 390.881462 
L 72.859128 388.347246 
" clip-path="url(#p1bcb05f96b)" style="fill: #73b1fb; stroke: #ffffff; stroke-width: 0.3"/>
    <path d="M 88.966216 384.662555 
L 89.962224 385.353293 
L 87.011364 385.567686 
L 87.033662 382.751136 
L 88.525197 384.654251 
L 88.966216 384.662555 
" clip-path="url(#p1bcb05f96b)" style="fill: #73b1fb; stroke: #ffffff; stroke-width: 0.3"/>
    <path d="M 178.291057 364.388074 
L 178.625538 364.696075 
L 178.250176 365.426068 
L 177.635724 365.240361 
L 178.291057 364.388074 
" clip-path="url(#p1bcb05f96b)" style="fill: #73b1fb; stroke: #ffffff; stroke-width: 0.3"/>
    <path d="M 110.625678 355.540588 
L 110.303586 356.438925 
L 108.916112 355.222018 
L 110.013703 354.870232 
L 110.625678 355.540588 
" clip-path="url(#p1bcb05f96b)" style="fill: #73b1fb; stroke: #ffffff; stroke-width: 0.3"/>
    <path d="M 133.879497 347.283438 
L 133.429807 349.065768 
L 132.443709 350.319666 
L 131.157818 350.588412 
L 130.845636 351.79022 
L 129.590715 351.855897 
L 127.936896 353.69862 
L 126.482525 353.882817 
L 126.286792 354.179494 
L 127.520653 356.324179 
L 126.125746 356.201885 
L 125.25362 358.052157 
L 125.320516 358.634188 
L 126.053895 358.603992 
L 125.647563 359.476662 
L 124.558644 360.406705 
L 123.437515 360.503333 
L 123.231872 358.084617 
L 123.833936 357.790205 
L 124.810123 356.121865 
L 124.515285 354.09268 
L 125.773922 353.765052 
L 126.160433 353.007127 
L 127.788238 352.196359 
L 128.133867 351.603004 
L 128.06821 351.033806 
L 126.997873 350.562745 
L 126.886379 349.183534 
L 128.546393 349.212975 
L 128.672752 350.209449 
L 129.613014 350.106782 
L 130.430633 349.564006 
L 130.434349 349.018209 
L 132.178602 347.208702 
L 132.622098 345.625667 
L 133.879497 347.283438 
" clip-path="url(#p1bcb05f96b)" style="fill: #73b1fb; stroke: #ffffff; stroke-width: 0.3"/>
    <path d="M 139.405856 335.078135 
L 138.07289 336.757044 
L 137.262704 337.009182 
L 136.759744 336.616631 
L 136.935656 335.768118 
L 138.159607 335.805864 
L 139.405856 335.078135 
" clip-path="url(#p1bcb05f96b)" style="fill: #73b1fb; stroke: #ffffff; stroke-width: 0.3"/>
    <path d="M 143.791265 328.468188 
L 144.337583 328.932454 
L 144.331389 329.47976 
L 143.601726 330.612873 
L 142.888168 330.775932 
L 142.300969 329.752281 
L 142.356716 326.98027 
L 143.155752 326.556769 
L 143.791265 328.468188 
" clip-path="url(#p1bcb05f96b)" style="fill: #73b1fb; stroke: #ffffff; stroke-width: 0.3"/>
    <path d="M 148.477707 322.745254 
L 148.917487 322.672783 
L 149.296564 323.358991 
L 148.540886 323.098549 
L 148.211361 323.533374 
L 147.333041 323.124971 
L 146.714871 321.433984 
L 148.061465 321.719338 
L 147.795119 322.296085 
L 148.477707 322.745254 
" clip-path="url(#p1bcb05f96b)" style="fill: #73b1fb; stroke: #ffffff; stroke-width: 0.3"/>
    <path d="M 159.645635 318.034647 
L 159.115421 319.566349 
L 157.869172 319.451604 
L 158.81315 318.595541 
L 159.645635 318.034647 
" clip-path="url(#p1bcb05f96b)" style="fill: #73b1fb; stroke: #ffffff; stroke-width: 0.3"/>
    <path d="M 154.73249 316.389709 
L 154.861327 317.001937 
L 153.389613 317.528106 
L 151.556165 319.629761 
L 150.773233 319.566349 
L 150.35823 320.326538 
L 151.085415 320.960658 
L 150.074541 321.933731 
L 149.317624 321.985064 
L 149.685553 322.745254 
L 148.325332 321.66272 
L 148.061465 320.70701 
L 147.652655 320.987835 
L 146.180942 320.326538 
L 148.085002 320.226136 
L 148.382318 319.693173 
L 147.42843 319.312701 
L 147.979703 318.862778 
L 150.826502 317.69041 
L 151.198147 317.147634 
L 151.822511 317.667008 
L 152.082662 316.977025 
L 153.494912 316.007727 
L 153.346254 316.827554 
L 153.766213 316.804907 
L 154.208471 315.504961 
L 154.73249 316.389709 
" clip-path="url(#p1bcb05f96b)" style="fill: #73b1fb; stroke: #ffffff; stroke-width: 0.3"/>
    <path d="M 125.844535 348.424854 
L 125.865595 348.952533 
L 125.064081 348.843072 
L 125.004618 348.551678 
L 125.844535 348.424854 
" clip-path="url(#p1bcb05f96b)" style="fill: #73b1fb; stroke: #ffffff; stroke-width: 0.3"/>
    <path d="M 128.669036 341.814152 
L 128.370481 342.77892 
L 127.609848 343.335285 
L 127.760984 343.050686 
L 128.669036 341.814152 
" clip-path="url(#p1bcb05f96b)" style="fill: #73b1fb; stroke: #ffffff; stroke-width: 0.3"/>
    <path d="M 178.817554 362.971117 
L 179.298215 363.039058 
L 179.398559 363.236089 
L 179.119825 363.501815 
L 178.817554 362.971117 
" clip-path="url(#p1bcb05f96b)" style="fill: #73b1fb; stroke: #ffffff; stroke-width: 0.3"/>
    <path d="M 116.899043 350.956805 
L 117.20627 350.99757 
L 117.233524 351.189316 
L 116.78755 351.355395 
L 116.899043 350.956805 
" clip-path="url(#p1bcb05f96b)" style="fill: #73b1fb; stroke: #ffffff; stroke-width: 0.3"/>
    <path d="M 135.655959 342.634733 
L 135.568003 343.132216 
L 134.771444 342.760048 
L 135.269449 342.282948 
L 135.655959 342.634733 
" clip-path="url(#p1bcb05f96b)" style="fill: #73b1fb; stroke: #ffffff; stroke-width: 0.3"/>
    <path d="M 132.340887 327.440007 
L 132.444948 327.612126 
L 132.416455 327.832558 
L 132.27523 327.693655 
L 132.340887 327.440007 
" clip-path="url(#p1bcb05f96b)" style="fill: #73b1fb; stroke: #ffffff; stroke-width: 0.3"/>
    <path d="M 86.160297 383.47358 
L 86.196223 384.239053 
L 85.20517 384.02768 
L 85.561949 383.318069 
L 86.160297 383.47358 
" clip-path="url(#p1bcb05f96b)" style="fill: #73b1fb; stroke: #ffffff; stroke-width: 0.3"/>
    <path d="M 119.143778 358.087637 
L 119.013702 359.025984 
L 118.898493 359.211691 
L 118.786999 358.240128 
L 119.143778 358.087637 
" clip-path="url(#p1bcb05f96b)" style="fill: #73b1fb; stroke: #ffffff; stroke-width: 0.3"/>
    <path d="M 61.855962 366.910966 
L 61.766767 366.904172 
L 61.802693 366.790936 
L 61.855962 366.910966 
" clip-path="url(#p1bcb05f96b)" style="fill: #73b1fb; stroke: #ffffff; stroke-width: 0.3"/>
    <path d="M 61.672617 366.655053 
L 61.654035 366.811318 
L 61.587139 366.678455 
L 61.672617 366.655053 
" clip-path="url(#p1bcb05f96b)" style="fill: #73b1fb; stroke: #ffffff; stroke-width: 0.3"/>
    <path d="M 61.149837 366.580317 
L 61.123822 366.626367 
L 61.08418 366.566729 
L 61.149837 366.580317 
" clip-path="url(#p1bcb05f96b)" style="fill: #73b1fb; stroke: #ffffff; stroke-width: 0.3"/>
    <path d="M 60.928089 366.488219 
L 60.677848 366.488219 
L 60.412741 366.556915 
L 60.716251 366.273826 
L 60.928089 366.488219 
" clip-path="url(#p1bcb05f96b)" style="fill: #73b1fb; stroke: #ffffff; stroke-width: 0.3"/>
    <path d="M 62.071516 366.252689 
L 62.071516 366.269297 
L 62.034352 366.252689 
L 62.071516 366.252689 
" clip-path="url(#p1bcb05f96b)" style="fill: #73b1fb; stroke: #ffffff; stroke-width: 0.3"/>
    <path d="M 61.688722 365.743883 
L 61.6912 365.829942 
L 61.644125 365.826922 
L 61.688722 365.743883 
" clip-path="url(#p1bcb05f96b)" style="fill: #73b1fb; stroke: #ffffff; stroke-width: 0.3"/>
    <path d="M 76.50868 363.994013 
L 76.491337 364.027229 
L 76.454172 364.003072 
L 76.47771 363.953248 
L 76.50868 363.994013 
" clip-path="url(#p1bcb05f96b)" style="fill: #73b1fb; stroke: #ffffff; stroke-width: 0.3"/>
    <path d="M 62.871791 363.391599 
L 62.856926 363.414246 
L 62.85197 363.371972 
L 62.871791 363.391599 
" clip-path="url(#p1bcb05f96b)" style="fill: #73b1fb; stroke: #ffffff; stroke-width: 0.3"/>
    <path d="M 62.91515 363.587119 
L 62.866836 363.426325 
L 62.965941 363.353099 
L 63.066286 363.50106 
L 62.91515 363.587119 
" clip-path="url(#p1bcb05f96b)" style="fill: #73b1fb; stroke: #ffffff; stroke-width: 0.3"/>
    <path d="M 297.587583 157.262804 
L 299.496778 159.298665 
L 301.661634 159.80823 
L 301.308429 160.586718 
L 301.804017 161.436152 
L 301.251004 162.27504 
L 300.845093 164.581743 
L 303.002083 165.918211 
L 301.376867 169.201859 
L 301.416986 169.891185 
L 302.893525 171.56225 
L 305.404507 171.860415 
L 306.448389 173.719391 
L 304.759455 173.000344 
L 303.389114 173.239547 
L 301.951121 172.415519 
L 297.890442 171.518149 
L 296.943318 172.89776 
L 296.701817 173.970578 
L 292.393344 176.039037 
L 291.635015 177.108499 
L 290.319739 175.967611 
L 290.30086 174.38379 
L 289.646368 173.698299 
L 290.170276 173.085671 
L 289.901242 171.530133 
L 290.553374 170.779927 
L 290.458976 169.41997 
L 289.851683 168.80878 
L 287.825277 169.167345 
L 286.885233 168.481853 
L 286.701157 167.863952 
L 287.125947 165.961354 
L 287.610522 164.939828 
L 288.483702 164.562568 
L 288.689804 163.762988 
L 293.054129 162.484043 
L 293.485212 161.634609 
L 294.514934 161.206536 
L 294.925565 160.24541 
L 295.650855 159.814941 
L 295.657934 158.595437 
L 296.699457 158.232079 
L 297.587583 157.262804 
" clip-path="url(#p1bcb05f96b)" style="fill: #62a7fa; stroke: #ffffff; stroke-width: 0.3"/>
    <path d="M 291.309343 162.987855 
L 288.564727 163.88954 
L 288.483702 164.562568 
L 287.520844 165.075488 
L 286.701157 167.863952 
L 287.638842 169.117011 
L 289.627489 168.780977 
L 290.324459 169.117011 
L 290.595853 170.534013 
L 289.901242 171.530133 
L 290.170276 173.085671 
L 289.646368 173.698299 
L 290.30086 174.38379 
L 290.319739 175.967611 
L 291.635015 177.108499 
L 291.859996 178.464142 
L 290.448749 179.252218 
L 289.874496 178.547552 
L 287.85753 178.578231 
L 287.483085 177.672232 
L 286.44943 177.326131 
L 285.210458 179.23544 
L 284.260974 179.318849 
L 283.70796 180.500004 
L 284.050152 181.235349 
L 283.530964 182.131282 
L 283.951035 183.447617 
L 283.034589 184.946111 
L 282.678238 188.465606 
L 278.005547 191.487041 
L 275.825744 191.218117 
L 274.346846 191.512927 
L 273.943295 190.69561 
L 274.547441 189.002494 
L 274.335046 188.210584 
L 274.943912 187.962273 
L 274.651279 185.910592 
L 273.782819 185.091837 
L 273.517718 183.322982 
L 272.502155 181.489892 
L 270.662972 180.22341 
L 271.7218 178.758951 
L 272.787709 178.595488 
L 274.530921 175.963776 
L 273.954308 174.355987 
L 274.311447 172.636986 
L 275.249131 170.699394 
L 274.349206 169.548919 
L 275.192493 168.683666 
L 276.0287 166.362103 
L 276.694991 165.600393 
L 276.895586 162.168621 
L 277.937108 161.638444 
L 278.966831 159.488973 
L 280.802868 159.902185 
L 281.078195 161.114978 
L 281.638289 161.567977 
L 284.244454 160.59247 
L 284.983117 160.75833 
L 285.322949 159.703728 
L 286.532814 158.409923 
L 288.571807 157.705257 
L 289.417454 157.978974 
L 289.817857 159.68743 
L 291.115827 161.036362 
L 291.309343 162.987855 
" clip-path="url(#p1bcb05f96b)" style="fill: #1d4bd0; stroke: #ffffff; stroke-width: 0.3"/>
    <path d="M 302.893525 171.56225 
L 301.310789 169.509611 
L 303.002083 165.918211 
L 300.845093 164.581743 
L 301.251004 162.27504 
L 301.804017 161.436152 
L 301.308429 160.586718 
L 301.661634 159.80823 
L 309.67286 155.408621 
L 312.903625 156.027481 
L 314.226767 157.00874 
L 314.980376 158.171679 
L 315.471245 163.21076 
L 314.775061 163.979661 
L 314.993749 166.954118 
L 314.002572 169.092564 
L 310.702583 169.825033 
L 309.809737 170.804854 
L 308.98061 170.978384 
L 308.091697 172.19597 
L 306.899138 172.745802 
L 306.139236 172.774563 
L 305.148846 171.717564 
L 302.893525 171.56225 
" clip-path="url(#p1bcb05f96b)" style="fill: #3d84f6; stroke: #ffffff; stroke-width: 0.3"/>
    <path d="M 269.948695 168.153009 
L 270.231889 168.730164 
L 270.938299 168.38598 
L 274.349206 169.548919 
L 275.249131 170.699394 
L 274.311447 172.636986 
L 273.954308 174.355987 
L 274.530921 175.963776 
L 272.787709 178.595488 
L 271.7218 178.758951 
L 270.662972 180.22341 
L 272.502155 181.489892 
L 273.517718 183.322982 
L 273.782819 185.091837 
L 274.651279 185.910592 
L 274.943912 187.962273 
L 274.335046 188.210584 
L 274.547441 189.002494 
L 274.082532 190.080106 
L 272.167043 191.088689 
L 270.205929 190.128042 
L 268.30932 190.602613 
L 266.820982 189.809744 
L 265.942295 188.520253 
L 265.02585 187.968984 
L 262.104238 188.648723 
L 260.872347 190.71047 
L 260.771656 192.520551 
L 259.420195 191.860466 
L 258.562748 190.839419 
L 256.590621 191.337 
L 256.234269 190.154887 
L 256.725138 187.797371 
L 256.569381 186.695791 
L 255.990408 185.191545 
L 255.275345 185.046298 
L 254.436778 183.117814 
L 255.151841 181.288559 
L 255.851958 180.848981 
L 257.890164 181.383473 
L 258.253595 180.962591 
L 262.219876 180.420909 
L 262.730411 179.319329 
L 261.153967 177.59074 
L 261.493799 175.155568 
L 262.953819 172.179672 
L 262.290674 171.126029 
L 262.919206 171.08001 
L 263.466713 170.183598 
L 264.763896 170.484639 
L 265.102942 171.472609 
L 267.961622 168.515409 
L 269.948695 168.153009 
" clip-path="url(#p1bcb05f96b)" style="fill: #1e51db; stroke: #ffffff; stroke-width: 0.3"/>
    <path d="M 254.436778 183.117814 
L 255.275345 185.046298 
L 255.990408 185.191545 
L 256.569381 186.695791 
L 256.725138 187.797371 
L 256.246069 190.80107 
L 257.266352 192.649979 
L 256.718844 195.710243 
L 255.263545 197.335289 
L 252.234949 197.488207 
L 252.237309 198.191914 
L 251.76768 198.789202 
L 250.567255 199.294452 
L 249.437628 197.687622 
L 248.370933 197.320908 
L 247.697562 195.075564 
L 248.032674 192.855627 
L 247.886357 190.210972 
L 246.605694 188.832799 
L 247.742401 187.958917 
L 248.639966 188.016441 
L 249.469094 185.770618 
L 250.208543 186.182871 
L 251.750374 185.554424 
L 251.977715 184.734711 
L 252.582648 184.744777 
L 252.46465 182.785614 
L 253.066436 182.572776 
L 254.436778 183.117814 
" clip-path="url(#p1bcb05f96b)" style="fill: #2563eb; stroke: #ffffff; stroke-width: 0.3"/>
    <path d="M 297.890442 171.518149 
L 301.951121 172.415519 
L 303.389114 173.239547 
L 304.759455 173.000344 
L 306.448389 173.719391 
L 308.151482 175.860713 
L 309.378654 178.606034 
L 309.339321 180.659632 
L 307.723546 180.341334 
L 305.376187 181.013883 
L 304.340958 181.152419 
L 303.911448 180.668261 
L 302.451429 181.144749 
L 296.395024 178.819831 
L 295.012883 179.59736 
L 294.193195 179.553259 
L 291.859996 178.464142 
L 291.635015 177.108499 
L 292.251747 176.174697 
L 296.701817 173.970578 
L 296.943318 172.89776 
L 297.890442 171.518149 
" clip-path="url(#p1bcb05f96b)" style="fill: #2968ed; stroke: #ffffff; stroke-width: 0.3"/>
    <path d="M 286.44943 177.326131 
L 287.483085 177.672232 
L 287.85753 178.578231 
L 289.685701 178.499136 
L 290.623385 179.26564 
L 291.859996 178.464142 
L 293.609502 179.410408 
L 295.012883 179.59736 
L 296.076431 181.505231 
L 298.041479 182.9625 
L 297.6985 185.343504 
L 295.171786 186.987245 
L 294.670691 188.028425 
L 293.595343 188.330425 
L 291.578376 188.588323 
L 289.237311 187.358753 
L 288.663058 189.637173 
L 288.685084 191.491355 
L 288.15567 192.096313 
L 287.343062 192.032558 
L 286.672838 191.314949 
L 286.185902 189.677439 
L 284.555967 189.461725 
L 284.638565 185.48971 
L 283.530964 182.131282 
L 284.050152 181.235349 
L 283.70796 180.500004 
L 284.260974 179.318849 
L 285.210458 179.23544 
L 286.44943 177.326131 
" clip-path="url(#p1bcb05f96b)" style="fill: #5399f9; stroke: #ffffff; stroke-width: 0.3"/>
    <path d="M 251.07543 200.376858 
L 251.621363 201.472206 
L 251.101389 201.827415 
L 251.431781 203.206068 
L 252.858761 203.744394 
L 253.735087 204.624508 
L 253.222193 205.510853 
L 251.604057 206.342071 
L 252.326987 209.174637 
L 251.825892 212.721455 
L 252.065033 213.305801 
L 250.787516 213.558426 
L 249.873431 215.170529 
L 248.201017 216.651287 
L 247.250746 215.892452 
L 244.713805 216.298954 
L 244.404652 215.686805 
L 244.529729 214.071346 
L 243.563725 212.450614 
L 245.040264 210.059064 
L 246.081786 209.698582 
L 245.387176 208.362114 
L 245.144102 206.751448 
L 245.507533 206.439861 
L 245.557879 205.037241 
L 244.76651 203.381036 
L 246.048747 199.557144 
L 247.966596 200.677899 
L 249.148141 200.212915 
L 250.654573 200.73734 
L 251.07543 200.376858 
" clip-path="url(#p1bcb05f96b)" style="fill: #1d4fd9; stroke: #ffffff; stroke-width: 0.3"/>
   </g>
  </g>
 </g>
 <defs>
  <clipPath id="p1bcb05f96b">
   <rect x="51.692714" y="0" width="472.614572" height="395.238773"/>
  </clipPath>
 </defs>
</svg>
