<?xml version="1.0" encoding="utf-8" standalone="no"?>
<!DOCTYPE svg PUBLIC "-//W3C//DTD SVG 1.1//EN"
  "http://www.w3.org/Graphics/SVG/1.1/DTD/svg11.dtd">
<svg xmlns:xlink="http://www.w3.org/1999/xlink" width="576pt" height="457.389182pt" viewBox="0 0 576 457.389182" xmlns="http://www.w3.org/2000/svg" version="1.1">
 <metadata>
  <rdf:RDF xmlns:dc="http://purl.org/dc/elements/1.1/" xmlns:cc="http://creativecommons.org/ns#" xmlns:rdf="http://www.w3.org/1999/02/22-rdf-syntax-ns#">
   <cc:Work>
    <dc:type rdf:resource="http://purl.org/dc/dcmitype/StillImage"/>
    <dc:date>2026-02-16T09:38:01.479744</dc:date>
    <dc:format>image/svg+xml</dc:format>
    <dc:creator>
     <cc:Agent>
      <dc:title>Matplotlib v3.5.1, https://matplotlib.org/</dc:title>
     </cc:Agent>
    </dc:creator>
   </cc:Work>
  </rdf:RDF>
 </metadata>
 <defs>
  <style type="text/css">*{stroke-linejoin: round; stroke-linecap: butt}</style>
 </defs>
 <g id="figure_1">
  <g id="patch_1">
   <path d="M 0 457.389182 
L 576 457.389182 
L 576 0 
L 0 0 
L 0 457.389182 
z
" style="fill: none"/>
  </g>
  <g id="axes_1">
   <g id="PatchCollection_1">
    <path d="M 572.070927 365.667262 
L 572.463688 442.707518 
L 562.067888 433.006478 
L 550.210245 430.629168 
L 547.334823 433.996617 
L 532.542633 434.360055 
L 537.50011 424.740865 
L 544.84975 421.45893 
L 541.806002 408.60606 
L 536.201163 398.683293 
L 513.568231 388.673789 
L 503.940457 387.685483 
L 486.407989 376.762804 
L 482.961827 382.506953 
L 478.481576 383.549011 
L 475.831193 379.214634 
L 475.79439 374.078861 
L 466.874913 368.272409 
L 479.449301 364.015606 
L 487.775715 364.245274 
L 486.79713 361.109325 
L 469.706896 361.085503 
L 465.081847 354.048248 
L 454.651658 351.865789 
L 449.709867 346.01719 
L 465.447459 343.153667 
L 471.431786 339.301226 
L 490.175117 344.155411 
L 492.017655 348.548427 
L 495.277994 367.665254 
L 507.361279 374.740379 
L 517.118164 362.202692 
L 530.514272 355.068928 
L 540.89318 355.059155 
L 559.537566 363.408451 
L 572.070927 365.667262 
" clip-path="url(#p010e9d1be8)" style="fill: #1f54de; stroke: #ffffff; stroke-width: 0.3"/>
    <path d="M 384.903688 440.046787 
L 386.086797 442.377675 
L 386.302786 445.961355 
L 378.684066 454.788923 
L 368.69068 457.389182 
L 367.289772 455.970859 
L 368.340754 451.952275 
L 373.360977 444.742159 
L 384.903688 440.046787 
" clip-path="url(#p010e9d1be8)" style="fill: #1f54de; stroke: #ffffff; stroke-width: 0.3"/>
    <path d="M 492.797144 416.435548 
L 491.66049 407.537737 
L 496.17694 399.294113 
L 498.831546 402.751964 
L 498.803794 408.387998 
L 492.797144 416.435548 
" clip-path="url(#p010e9d1be8)" style="fill: #1f54de; stroke: #ffffff; stroke-width: 0.3"/>
    <path d="M 302.167453 286.027052 
L 295.526714 296.702044 
L 304.108935 307.892568 
L 302.092641 313.330391 
L 315.18166 324.268952 
L 301.348145 325.663453 
L 297.45432 333.721999 
L 297.959902 344.433334 
L 286.73333 352.517534 
L 286.426844 364.288642 
L 281.923667 382.364021 
L 280.204809 378.159748 
L 266.941431 383.478156 
L 262.316382 376.252769 
L 253.992382 375.584532 
L 248.170348 371.79745 
L 234.290377 376.048144 
L 230.03094 370.327817 
L 222.383261 370.977729 
L 212.758503 369.613769 
L 210.97328 353.761163 
L 205.147626 350.475563 
L 199.542787 340.364664 
L 197.917444 330.023485 
L 199.277326 319.071486 
L 206.213692 311.216649 
L 208.163018 319.116381 
L 216.146746 325.794779 
L 223.677985 323.391204 
L 231.131395 324.242686 
L 237.934427 318.265509 
L 243.533233 317.229254 
L 254.578205 320.541729 
L 264.099192 318.022403 
L 270.084726 301.583105 
L 274.58006 297.472593 
L 278.624715 284.029366 
L 292.04737 284.034863 
L 302.167453 286.027052 
" clip-path="url(#p010e9d1be8)" style="fill: #1f54de; stroke: #ffffff; stroke-width: 0.3"/>
    <path d="M 436.300485 368.054957 
L 449.14697 371.501813 
L 453.39072 380.540724 
L 443.533684 375.668825 
L 433.781626 374.679908 
L 427.190359 375.460536 
L 419.11372 375.043957 
L 421.880543 368.545445 
L 436.300485 368.054957 
" clip-path="url(#p010e9d1be8)" style="fill: #1f54de; stroke: #ffffff; stroke-width: 0.3"/>
    <path d="M 407.158941 379.742993 
L 399.090145 377.572751 
L 396.816233 372.488898 
L 408.626818 371.922057 
L 411.528785 375.819698 
L 407.158941 379.742993 
" clip-path="url(#p010e9d1be8)" style="fill: #1f54de; stroke: #ffffff; stroke-width: 0.3"/>
    <path d="M 419.504671 309.229347 
L 420.342682 315.68388 
L 427.235608 316.720746 
L 428.329427 321.54836 
L 427.718867 331.877934 
L 421.697134 330.72043 
L 419.920961 337.912833 
L 424.730625 344.152968 
L 421.461839 345.571291 
L 416.750517 338.084473 
L 413.283239 322.974624 
L 415.630152 313.53074 
L 419.504671 309.229347 
" clip-path="url(#p010e9d1be8)" style="fill: #1f54de; stroke: #ffffff; stroke-width: 0.3"/>
    <path d="M 361.07377 324.58841 
L 374.499441 324.093035 
L 386.039738 315.509796 
L 388.077149 318.150675 
L 378.696735 329.875666 
L 369.922658 332.148527 
L 358.686434 329.837185 
L 339.23179 330.427237 
L 329.032068 332.128981 
L 327.371733 341.075658 
L 337.821229 351.586645 
L 344.124712 346.232809 
L 365.8955 342.210561 
L 364.936222 347.654187 
L 359.849634 345.937173 
L 354.780543 352.862647 
L 344.503597 357.444406 
L 355.551585 372.592737 
L 353.41885 376.652245 
L 363.915405 390.294905 
L 363.814651 398.059646 
L 357.582359 401.5346 
L 353.00437 397.377971 
L 358.645408 387.700143 
L 347.188369 392.276404 
L 344.283988 389.004854 
L 345.79832 384.441419 
L 337.380805 377.510447 
L 338.247172 365.992218 
L 330.460729 369.58506 
L 331.923176 400.277533 
L 324.519238 401.993326 
L 319.503238 398.523869 
L 322.850456 387.643947 
L 321.043513 376.237499 
L 316.134302 376.150151 
L 312.508351 368.053124 
L 317.332495 360.312205 
L 318.995243 350.92757 
L 324.86313 333.109957 
L 327.311401 328.237448 
L 337.236008 319.458135 
L 346.354581 322.948359 
L 361.07377 324.58841 
" clip-path="url(#p010e9d1be8)" style="fill: #1f54de; stroke: #ffffff; stroke-width: 0.3"/>
    <path d="M 330.338859 456.191365 
L 314.843801 447.909259 
L 325.730704 445.58509 
L 335.948524 452.775661 
L 335.249277 455.965972 
L 330.338859 456.191365 
" clip-path="url(#p010e9d1be8)" style="fill: #1f54de; stroke: #ffffff; stroke-width: 0.3"/>
    <path d="M 342.558494 435.838239 
L 350.330457 434.938501 
L 360.793226 430.607789 
L 359.082212 437.174712 
L 341.540694 440.529946 
L 326.01185 439.07314 
L 325.971428 434.752201 
L 335.243244 432.294873 
L 342.558494 435.838239 
" clip-path="url(#p010e9d1be8)" style="fill: #1f54de; stroke: #ffffff; stroke-width: 0.3"/>
    <path d="M 306.587372 433.777333 
L 313.800662 432.811627 
L 316.696596 437.836841 
L 295.112233 441.797397 
L 288.835899 441.70333 
L 292.847371 434.897576 
L 299.248592 434.804732 
L 302.377408 430.624892 
L 306.587372 433.777333 
" clip-path="url(#p010e9d1be8)" style="fill: #1f54de; stroke: #ffffff; stroke-width: 0.3"/>
    <path d="M 192.479121 410.841661 
L 194.074298 415.045933 
L 216.440563 416.224205 
L 219.013117 411.352306 
L 240.672895 417.035984 
L 244.922075 424.697497 
L 262.436443 426.852469 
L 276.756837 433.876896 
L 263.43554 438.380471 
L 250.595692 433.61852 
L 227.915098 433.065117 
L 216.988377 430.943129 
L 203.463158 426.42856 
L 194.893606 425.257619 
L 190.03809 426.735802 
L 168.746941 421.86879 
L 166.721597 416.786159 
L 156.03741 415.917573 
L 164.048288 404.623516 
L 178.214232 405.321683 
L 187.636878 409.940702 
L 192.479121 410.841661 
" clip-path="url(#p010e9d1be8)" style="fill: #1f54de; stroke: #ffffff; stroke-width: 0.3"/>
    <path d="M 144.415061 347.756194 
L 146.393949 356.001039 
L 150.46153 362.597282 
L 159.033495 363.642395 
L 164.713146 371.123715 
L 161.781012 385.824926 
L 161.316456 404.108594 
L 148.389127 404.355976 
L 138.556827 394.474745 
L 123.566748 384.817073 
L 118.568849 377.652768 
L 109.730216 368.026859 
L 103.932315 359.167529 
L 95.05326 342.620421 
L 84.799843 332.768509 
L 77.066493 313.379257 
L 66.538565 305.936417 
L 60.436591 295.823074 
L 51.646224 289.20301 
L 39.467614 276.178194 
L 38.441971 270.161314 
L 64.031772 272.921303 
L 74.355778 284.480762 
L 89.823082 297.412427 
L 100.884344 310.118395 
L 112.752848 310.303779 
L 122.562824 318.400501 
L 129.317591 328.297919 
L 138.208712 333.697566 
L 133.529968 343.348518 
L 140.221386 347.453227 
L 144.415061 347.756194 
" clip-path="url(#p010e9d1be8)" style="fill: #1f54de; stroke: #ffffff; stroke-width: 0.3"/>
    <path d="M 123.574591 190.886679 
L 120.809578 176.612126 
L 128.285311 166.784036 
L 143.380971 164.526141 
L 154.324585 166.222693 
L 163.958393 170.857593 
L 169.240456 162.70773 
L 179.588594 167.05921 
L 182.295086 174.942145 
L 180.857375 189.106445 
L 161.233198 198.203078 
L 166.360208 205.363719 
L 154.104374 206.220699 
L 143.99877 210.981428 
L 134.226199 209.255557 
L 129.47928 203.09605 
L 123.574591 190.886679 
" clip-path="url(#p010e9d1be8)" style="fill: #73b1fb; stroke: #ffffff; stroke-width: 0.3"/>
    <path d="M 154.324585 166.222693 
L 143.380971 164.526141 
L 128.285311 166.784036 
L 120.809578 176.612126 
L 123.574591 190.886679 
L 113.09312 185.459545 
L 103.106974 185.680051 
L 104.819195 176.393758 
L 94.537422 176.463086 
L 93.614343 189.463469 
L 83.515979 217.169033 
L 84.317188 225.72448 
L 91.922635 226.095553 
L 96.660504 236.883852 
L 98.757643 247.115083 
L 105.272891 253.884494 
L 112.345003 255.258533 
L 118.393886 261.392996 
L 114.577286 266.249013 
L 106.871085 267.660618 
L 105.952229 261.591207 
L 96.426416 256.414509 
L 94.396848 258.522448 
L 89.78447 253.986806 
L 87.787482 248.133014 
L 75.927425 235.853704 
L 74.011282 242.801474 
L 71.797099 236.235467 
L 76.508422 217.524835 
L 82.16575 205.378684 
L 88.577227 194.3598 
L 84.013115 183.580053 
L 84.19592 178.089088 
L 82.861981 171.491013 
L 75.075538 162.099659 
L 72.288201 156.169821 
L 76.319583 153.985529 
L 80.592292 143.710013 
L 75.810381 135.908623 
L 68.401013 127.278656 
L 62.759371 116.90663 
L 67.684873 114.759599 
L 73.007962 101.980638 
L 81.249911 101.451363 
L 88.063802 96.325974 
L 94.74979 93.592556 
L 99.803799 97.240371 
L 100.474087 104.342984 
L 108.363094 104.883865 
L 105.490086 117.338175 
L 105.765803 127.934065 
L 118.071713 120.882151 
L 121.567347 122.966268 
L 128.405372 122.624514 
L 130.757715 118.511865 
L 139.587297 119.323644 
L 148.465749 128.922677 
L 149.193955 140.58903 
L 158.64737 150.890811 
L 158.125499 160.895122 
L 154.324585 166.222693 
" clip-path="url(#p010e9d1be8)" style="fill: #225ce5; stroke: #ffffff; stroke-width: 0.3"/>
    <path d="M 179.588594 167.05921 
L 169.240456 162.70773 
L 163.958393 170.857593 
L 154.324585 166.222693 
L 158.125499 160.895122 
L 158.64737 150.890811 
L 149.193955 140.58903 
L 148.465749 128.922677 
L 139.587297 119.323644 
L 130.757715 118.511865 
L 128.405372 122.624514 
L 121.567347 122.966268 
L 118.071713 120.882151 
L 105.765803 127.934065 
L 105.490086 117.338175 
L 108.363094 104.883865 
L 100.474087 104.342984 
L 99.803799 97.240371 
L 94.74979 93.592556 
L 97.23788 89.239548 
L 107.172141 81.55116 
L 108.223124 84.327947 
L 114.446969 84.650459 
L 112.682862 71.130269 
L 118.735365 69.397984 
L 125.55891 78.73131 
L 130.80055 89.470744 
L 145.174037 89.563283 
L 149.698934 99.871478 
L 142.236474 102.968028 
L 138.887446 107.217196 
L 152.874808 114.288046 
L 169.936687 138.669223 
L 178.771096 146.892995 
L 181.711072 155.242291 
L 179.588594 167.05921 
" clip-path="url(#p010e9d1be8)" style="fill: #468cf7; stroke: #ffffff; stroke-width: 0.3"/>
    <path d="M 94.74979 93.592556 
L 88.063802 96.325974 
L 81.249911 101.451363 
L 73.007962 101.980638 
L 67.684873 114.759599 
L 62.759371 116.90663 
L 68.401013 127.278656 
L 75.810381 135.908623 
L 80.592292 143.710013 
L 76.319583 153.985529 
L 72.288201 156.169821 
L 75.075538 162.099659 
L 82.861981 171.491013 
L 84.19592 178.089088 
L 84.013115 183.580053 
L 88.577227 194.3598 
L 82.16575 205.378684 
L 76.508422 217.524835 
L 75.383231 208.750714 
L 78.971776 199.696227 
L 75.046578 192.702341 
L 75.994997 179.825649 
L 71.255318 173.701875 
L 67.450785 159.555289 
L 65.341579 144.623189 
L 60.291794 134.834191 
L 39.333074 149.187845 
L 32.78404 148.135097 
L 25.550238 145.363502 
L 29.574379 130.714822 
L 27.138175 119.64799 
L 17.987023 106.019684 
L 19.414477 101.758911 
L 12.584899 100.243772 
L 4.298908 90.601677 
L 3.536312 81.091213 
L 7.611132 82.88122 
L 7.850047 74.403958 
L 13.610542 71.599989 
L 12.374944 66.580578 
L 15.013864 62.555275 
L 15.46756 50.322693 
L 24.592166 53.015492 
L 29.798211 43.269863 
L 30.388861 37.510443 
L 36.832314 27.595616 
L 36.477562 20.831398 
L 51.591925 12.663516 
L 59.935232 14.800774 
L 58.977764 7.528048 
L 63.070684 5.359333 
L 62.189838 0.87897 
L 69.018209 -0 
L 72.92048 6.958764 
L 78.016118 9.776781 
L 77.889421 28.572012 
L 66.830572 38.442554 
L 65.430871 52.463922 
L 77.754277 50.50319 
L 80.538597 61.384334 
L 87.931675 63.673686 
L 84.533176 73.49292 
L 98.258697 80.10596 
L 106.822216 76.664602 
L 107.172141 81.55116 
L 97.23788 89.239548 
L 94.74979 93.592556 
" clip-path="url(#p010e9d1be8)" style="fill: #468cf7; stroke: #ffffff; stroke-width: 0.3"/>
    <path d="M 143.99877 210.981428 
L 154.104374 206.220699 
L 166.360208 205.363719 
L 161.233198 198.203078 
L 180.857375 189.106445 
L 182.295086 174.942145 
L 179.588594 167.05921 
L 181.711072 155.242291 
L 178.771096 146.892995 
L 169.936687 138.669223 
L 152.874808 114.288046 
L 138.887446 107.217196 
L 142.236474 102.968028 
L 149.698934 99.871478 
L 145.174037 89.563283 
L 130.80055 89.470744 
L 125.55891 78.73131 
L 118.735365 69.397984 
L 124.999632 66.513388 
L 134.310664 66.572943 
L 145.662726 65.208982 
L 155.613879 58.909903 
L 161.241645 63.344455 
L 171.914369 65.503092 
L 170.068211 72.312205 
L 175.627198 77.114776 
L 187.38107 80.182313 
L 171.793705 90.29474 
L 162.063969 101.462358 
L 159.499258 109.66414 
L 179.34606 137.567915 
L 189.941559 144.869349 
L 197.035391 154.361489 
L 202.384422 176.236472 
L 200.806741 197.029999 
L 191.069766 204.813981 
L 177.6996 212.424185 
L 168.174994 222.277929 
L 153.618098 233.283375 
L 149.379175 225.703407 
L 152.660027 217.695865 
L 143.99877 210.981428 
" clip-path="url(#p010e9d1be8)" style="fill: #2a6aee; stroke: #ffffff; stroke-width: 0.3"/>
    <path d="M 336.630276 184.765043 
L 330.670684 175.759116 
L 340.672517 176.193104 
L 344.726825 180.449602 
L 341.630589 190.662508 
L 336.630276 184.765043 
" clip-path="url(#p010e9d1be8)" style="fill: #4187f7; stroke: #ffffff; stroke-width: 0.3"/>
    <path d="M 357.087034 216.956467 
L 360.017357 213.645519 
L 361.305444 206.308657 
L 367.743468 205.614155 
L 365.862921 213.571915 
L 374.504268 202.161496 
L 373.389333 213.437229 
L 369.195055 217.322348 
L 365.537731 224.790537 
L 361.871358 228.290228 
L 354.681598 220.120514 
L 357.087034 216.956467 
" clip-path="url(#p010e9d1be8)" style="fill: #4187f7; stroke: #ffffff; stroke-width: 0.3"/>
    <path d="M 401.343544 235.47072 
L 403.218661 249.954174 
L 399.241578 260.77057 
L 394.976109 248.720929 
L 389.517273 254.71643 
L 393.245185 263.425804 
L 389.898571 268.965329 
L 376.16038 262.105517 
L 372.878924 253.550375 
L 376.439114 247.930222 
L 369.043622 242.340305 
L 365.376042 247.241523 
L 359.882213 246.786462 
L 351.242677 253.381483 
L 349.309641 249.9218 
L 353.89125 239.95933 
L 361.246922 236.634638 
L 367.613151 232.18115 
L 371.739857 237.531932 
L 380.616498 234.295198 
L 382.521179 229.020464 
L 390.772781 228.706197 
L 390.080773 219.565279 
L 399.544445 225.171077 
L 401.343544 235.47072 
" clip-path="url(#p010e9d1be8)" style="fill: #4187f7; stroke: #ffffff; stroke-width: 0.3"/>
    <path d="M 309.435644 224.812831 
L 293.904387 236.028704 
L 299.627477 227.761869 
L 308.061885 220.461657 
L 315.071856 212.284612 
L 321.191327 200.542824 
L 323.271573 210.180644 
L 315.563561 216.689234 
L 309.435644 224.812831 
" clip-path="url(#p010e9d1be8)" style="fill: #4187f7; stroke: #ffffff; stroke-width: 0.3"/>
    <path d="M 354.17843 119.513609 
L 352.27918 124.414216 
L 356.264709 132.886592 
L 353.190192 142.709796 
L 346.307522 146.627289 
L 344.466191 156.156688 
L 347.078565 165.570642 
L 353.267417 166.87291 
L 358.431833 165.474133 
L 373.014068 172.027313 
L 371.902753 178.461689 
L 375.710907 181.30139 
L 374.498234 186.748681 
L 365.398968 180.946809 
L 361.086439 174.736604 
L 358.082511 179.075562 
L 350.64901 171.999521 
L 340.045065 173.746465 
L 334.23389 171.1346 
L 334.82635 166.248652 
L 338.47402 163.241892 
L 334.989246 160.508168 
L 333.480947 164.768025 
L 327.716832 157.97632 
L 325.971428 152.828942 
L 325.537641 141.512895 
L 330.239311 145.402595 
L 331.448363 126.910637 
L 335.252294 116.199912 
L 342.320786 116.213655 
L 349.515976 119.588435 
L 353.116587 116.510514 
L 354.17843 119.513609 
" clip-path="url(#p010e9d1be8)" style="fill: #4187f7; stroke: #ffffff; stroke-width: 0.3"/>
    <path d="M 350.692449 199.997056 
L 348.884904 194.371711 
L 355.893064 198.030827 
L 363.322945 198.013419 
L 363.0967 202.950981 
L 357.68975 207.970087 
L 350.274952 211.519561 
L 349.863488 206.027069 
L 350.692449 199.997056 
" clip-path="url(#p010e9d1be8)" style="fill: #4187f7; stroke: #ffffff; stroke-width: 0.3"/>
    <path d="M 391.136583 191.169183 
L 394.416228 204.367166 
L 385.408063 201.230912 
L 385.651804 205.198187 
L 388.508522 212.492291 
L 382.955569 215.1405 
L 382.469293 206.827243 
L 378.954353 206.213369 
L 377.126295 199.057005 
L 383.996898 200.00011 
L 383.844862 195.524939 
L 376.708797 186.499466 
L 387.920889 186.759981 
L 391.136583 191.169183 
" clip-path="url(#p010e9d1be8)" style="fill: #4187f7; stroke: #ffffff; stroke-width: 0.3"/>
    <path d="M 94.396848 258.522448 
L 96.426416 256.414509 
L 105.952229 261.591207 
L 106.871085 267.660618 
L 114.577286 266.249013 
L 118.393886 261.392996 
L 121.078658 262.497358 
L 127.973395 269.63326 
L 132.871143 277.546736 
L 133.540828 285.506328 
L 132.29799 290.883375 
L 134.286531 301.943183 
L 138.398758 305.20038 
L 142.99002 315.653033 
L 142.766792 319.649322 
L 134.48804 320.43789 
L 109.631272 302.300207 
L 108.26415 296.278135 
L 101.514813 288.372295 
L 99.903346 278.583602 
L 95.692176 272.139148 
L 96.971213 263.533308 
L 94.396848 258.522448 
" clip-path="url(#p010e9d1be8)" style="fill: #3e85f6; stroke: #ffffff; stroke-width: 0.3"/>
    <path d="M 302.167453 286.027052 
L 292.04737 284.034863 
L 278.624715 284.029366 
L 274.58006 297.472593 
L 270.084726 301.583105 
L 264.099192 318.022403 
L 254.578205 320.541729 
L 243.533233 317.229254 
L 237.934427 318.265509 
L 231.131395 324.242686 
L 223.677985 323.391204 
L 216.146746 325.794779 
L 208.163018 319.116381 
L 206.213692 311.216649 
L 214.769971 315.2673 
L 223.791409 313.058576 
L 226.140735 303.050905 
L 231.124155 300.821718 
L 245.118757 298.262689 
L 259.226783 281.437047 
L 264.545648 287.562653 
L 266.996936 283.535824 
L 272.576436 283.910256 
L 273.781868 270.540633 
L 282.771934 262.32022 
L 288.660333 253.081876 
L 293.383119 253.043089 
L 299.381323 259.02271 
L 299.914657 264.16062 
L 317.343354 271.012186 
L 316.51198 275.6422 
L 308.678478 276.228587 
L 310.763551 282.000528 
L 302.167453 286.027052 
" clip-path="url(#p010e9d1be8)" style="fill: #3e85f6; stroke: #ffffff; stroke-width: 0.3"/>
   </g>
  </g>
 </g>
 <defs>
  <clipPath id="p010e9d1be8">
   <rect x="3.536312" y="0" width="568.927377" height="457.389182"/>
  </clipPath>
 </defs>
</svg>
